<?xml version="1.0" encoding="utf-8"?>
<!-- Generator: Adobe Illustrator 23.1.0, SVG Export Plug-In . SVG Version: 6.00 Build 0)  -->
<svg version="1.1" id="Слой_1" xmlns="http://www.w3.org/2000/svg" xmlns:xlink="http://www.w3.org/1999/xlink" x="0px" y="0px"
	 viewBox="0 0 50 50" style="enable-background:new 0 0 50 50;" xml:space="preserve">
<style type="text/css">
	.st0{fill:#5A5A5A;}
	.st1{fill:#E17500;}
	.st2{fill:#D4D4D2;}
</style>
<path d="M43,6.1c0-2.7-1.8-4.6-4.5-4.6c-8.9,0-17.7,0-26.6,0C9.3,1.5,7.4,3.4,7.4,6c0,12.7,0,25.5,0,38.2c0,2.6,1.9,4.5,4.5,4.5
	c8.9,0,17.7,0,26.6,0c0.7,0,1.5-0.2,2.1-0.5c1.7-0.8,2.4-2.3,2.4-4.1c0-6.3,0-12.6,0-18.9C43,18.8,43,12.5,43,6.1z M36.7,16
	c-7.7,0-15.4,0-23.1,0c-0.3,0-0.6,0.1-0.6-0.4c0-2.7,0-5.4,0-8.1c0-0.1,0-0.2,0-0.3c8,0,16,0,24.1,0c0,0.2,0,0.4,0,0.6
	c0,2.5,0,5.1,0,7.6C37.3,15.9,37.2,16,36.7,16z M12.2,21.4c0.6-0.5,1.3-0.6,2.1-0.5c1.2-0.1,2.2,0.2,2.8,1.4
	c0.6,1.2,0.5,2.5-0.1,3.6c-0.3,0.6-0.8,1-1.5,1.1c-1.2,0.2-2.4,0.4-3.4-0.5c-0.2-0.2-0.5-0.5-0.6-0.8C10.7,24.4,11.1,22.3,12.2,21.4
	z M11.6,30c0.7-1.2,1.9-1.3,3.2-1.2c1.1,0.1,2,0.5,2.4,1.6c0.5,1.4,0.5,3.6-1.2,4.4c-0.5,0.2-1.1,0.3-1.7,0.4
	c-1.2,0-2.3-0.4-2.8-1.5C10.9,32.4,10.9,31.1,11.6,30z M16.9,41.7c-0.4,0.7-1.1,1.1-1.9,1.2c-0.5,0-1.1,0.1-1.6,0
	c-0.5-0.1-1-0.3-1.5-0.6c-1.1-0.8-1.1-2.8-0.7-3.9c0.4-1.1,1.4-1.7,2.7-1.7c0.1,0,0.2,0,0.4,0c1.1-0.1,2.2,0.3,2.7,1.5
	C17.6,39.2,17.6,40.5,16.9,41.7z M22.8,42.7c-0.8,0.2-1.6,0.2-2.4,0c-1.1-0.2-1.8-1.1-1.9-2.3c0-0.7,0-1.3,0.1-2
	c0.3-1.1,1.2-1.8,2.3-1.9c0.2,0,0.4,0,0.6,0c2-0.2,3.3,1.2,3.1,3.1C24.7,41.4,24.1,42.4,22.8,42.7z M23.3,34.7
	c-1.4,0.7-4.2,0.6-4.7-1.5c-0.2-0.8-0.2-1.7,0-2.5c0.2-1,1-1.7,2.1-1.8c0.5-0.1,1-0.1,1.6,0c1.3,0.1,2.6,1.1,2.5,3.2
	C24.8,33.1,24.4,34.1,23.3,34.7z M24.2,26.1c-0.4,0.4-0.9,0.8-1.4,0.9c-0.8,0.2-1.6,0.2-2.4,0c-1.1-0.2-1.8-1.1-1.9-2.2
	c-0.1-0.9-0.2-1.8,0.3-2.6c0.5-0.8,1.1-1.3,2.1-1.3c0.4,0,0.7,0,1.1,0c1.7,0,2.7,1.1,2.8,2.8c0,0.1,0,0.2,0,0.5
	C24.7,24.8,24.7,25.5,24.2,26.1z M31.7,41.5c-0.4,0.8-1.1,1.3-2,1.4c-0.6,0-1.3,0.1-1.9-0.1c-1.3-0.3-2-1.4-2-3.1
	c0-1.6,0.6-2.7,1.9-3c0.8-0.2,1.7-0.1,2.5,0c1,0.2,1.8,1.1,1.9,2.2C32,39.8,32.1,40.7,31.7,41.5z M26.1,30.1
	c0.1-0.2,0.2-0.3,0.3-0.5c0.8-1,2.6-1.1,3.8-0.7c1.1,0.4,1.8,1.3,1.8,2.6c0,0.6,0,1.2-0.2,1.8c-0.4,1.2-1.4,1.7-3,1.7
	c-1.2,0.1-2.2-0.3-2.7-1.5C25.5,32.4,25.5,31.2,26.1,30.1z M30.9,26.6c-1.4,1.1-4.1,0.6-4.9-0.9c-0.7-1.3-0.3-3.4,0.7-4.2
	c0.5-0.4,1-0.6,2.1-0.6c1.7,0,2.7,0.6,3,1.9C32.3,24.5,32,25.8,30.9,26.6z M39.3,40.2c0,1.5-1.1,2.5-2.6,2.6c-0.6,0-1.2,0-1.7-0.1
	c-1.2-0.3-2-1.3-2-2.6c0-1.4,0-2.9,0-4.3c0-1.4,0-2.8,0-4.2c0-1.8,1.1-2.9,2.9-2.9c0.3,0,0.6,0,0.9,0c1.5,0.2,2.5,1.2,2.5,2.6
	C39.3,34.3,39.3,37.3,39.3,40.2z M38.9,25.8c-0.6,1.1-1.6,1.4-2.8,1.3c-1.2,0.1-2.3-0.3-2.8-1.4c-0.5-1.2-0.5-2.4,0.1-3.6
	c0.4-0.7,1.1-1.2,2-1.2c0.5,0,1,0,1.5,0c0.8,0.1,1.5,0.5,1.9,1.2C39.5,23.3,39.5,24.6,38.9,25.8z"/>
<path class="st0" d="M13.2,7.3c8,0,16,0,24.1,0c0,0.2,0,0.4,0,0.6c0,2.5,0,5.1,0,7.6c0,0.4-0.1,0.6-0.5,0.6c-7.7,0-15.4,0-23.1,0
	c-0.3,0-0.6,0.1-0.6-0.4c0-2.7,0-5.4,0-8.1C13.1,7.5,13.2,7.4,13.2,7.3z"/>
<path class="st1" d="M39.3,31.4c0-1.5-1-2.5-2.5-2.6c-0.3,0-0.6,0-0.9,0c-1.8,0-2.9,1.1-2.9,2.9c0,1.4,0,2.8,0,4.2
	c0,1.4,0,2.9,0,4.3c0,1.3,0.8,2.4,2,2.6c0.6,0.1,1.2,0.1,1.7,0.1c1.5-0.1,2.5-1.1,2.6-2.6C39.3,37.3,39.3,34.3,39.3,31.4z"/>
<path class="st2" d="M17.1,38c-0.5-1.2-1.6-1.5-2.7-1.5c-0.2,0-0.3,0-0.4,0c-1.4,0-2.3,0.6-2.7,1.7c-0.4,1.1-0.4,3.1,0.7,3.9
	c0.4,0.3,0.9,0.5,1.5,0.6c0.5,0.1,1,0.1,1.6,0c0.8-0.1,1.5-0.4,1.9-1.2C17.6,40.5,17.6,39.2,17.1,38z"/>
<path class="st2" d="M17.2,30.3c-0.4-1-1.3-1.5-2.4-1.6c-1.2-0.1-2.5,0-3.2,1.2c-0.7,1.2-0.7,2.5-0.1,3.7c0.6,1.1,1.6,1.5,2.8,1.5
	c0.6-0.1,1.1-0.2,1.7-0.4C17.6,33.9,17.7,31.7,17.2,30.3z"/>
<path class="st2" d="M17.1,22.3c-0.5-1.2-1.6-1.5-2.8-1.4c-0.8,0-1.5,0-2.1,0.5c-1.1,0.9-1.4,2.9-0.7,4.3c0.2,0.3,0.4,0.6,0.6,0.8
	c1,0.9,2.2,0.7,3.4,0.5c0.7-0.1,1.2-0.5,1.5-1.1C17.6,24.8,17.6,23.5,17.1,22.3z"/>
<path class="st1" d="M38.8,22.1c-0.4-0.7-1.1-1.1-1.9-1.2c-0.5,0-1,0-1.5,0c-0.9,0-1.6,0.5-2,1.2c-0.7,1.2-0.6,2.4-0.1,3.6
	c0.5,1.2,1.6,1.5,2.8,1.4c1.2,0.1,2.2-0.2,2.8-1.3C39.5,24.6,39.5,23.3,38.8,22.1z"/>
<path class="st2" d="M24.7,31.9c0.1-2.1-1.2-3.1-2.5-3.2c-0.5,0-1.1,0-1.6,0c-1.1,0.2-1.9,0.8-2.1,1.8c-0.2,0.8-0.2,1.7,0,2.5
	c0.5,2.1,3.3,2.2,4.7,1.5C24.4,34.1,24.8,33.1,24.7,31.9z"/>
<path class="st2" d="M30.2,28.9c-1.2-0.4-3-0.3-3.8,0.7c-0.1,0.1-0.2,0.3-0.3,0.5c-0.5,1.1-0.6,2.3-0.1,3.5c0.5,1.2,1.6,1.6,2.7,1.5
	c1.6,0,2.6-0.5,3-1.7c0.2-0.5,0.2-1.2,0.2-1.8C32,30.2,31.3,29.3,30.2,28.9z"/>
<path class="st2" d="M21.6,36.6c-0.2,0-0.4,0-0.6,0c-1.1,0.1-2.1,0.7-2.3,1.9c-0.2,0.6-0.2,1.3-0.1,2c0.1,1.2,0.8,2.1,1.9,2.3
	c0.8,0.2,1.7,0.2,2.4,0c1.3-0.3,1.9-1.3,1.9-3C24.9,37.8,23.5,36.4,21.6,36.6z"/>
<path class="st2" d="M32,38.9c-0.1-1.1-0.8-2-1.9-2.2c-0.8-0.1-1.7-0.2-2.5,0c-1.3,0.3-1.9,1.4-1.9,3c0,1.7,0.6,2.7,2,3.1
	c0.6,0.1,1.3,0.1,1.9,0.1c0.9-0.1,1.6-0.5,2-1.4C32.1,40.7,32,39.8,32,38.9z"/>
<path class="st2" d="M24.7,24.1c0-0.2,0-0.4,0-0.5c0-1.7-1.1-2.7-2.8-2.8c-0.4,0-0.7,0-1.1,0c-0.9,0.1-1.6,0.5-2.1,1.3
	c-0.5,0.8-0.4,1.7-0.3,2.6c0.1,1.1,0.9,2,1.9,2.2c0.8,0.1,1.6,0.1,2.4,0c0.5-0.1,1-0.5,1.4-0.9C24.7,25.5,24.7,24.8,24.7,24.1z"/>
<path class="st2" d="M31.9,22.8c-0.3-1.3-1.3-1.9-3-1.9c-1.1,0-1.6,0.1-2.1,0.6c-1,0.8-1.4,2.9-0.7,4.2c0.8,1.5,3.5,2,4.9,0.9
	C32,25.8,32.3,24.5,31.9,22.8z"/>
</svg>
