<?xml version="1.0" encoding="utf-8"?>
<svg version="1.1" id="Слой_1" xmlns="http://www.w3.org/2000/svg" xmlns:xlink="http://www.w3.org/1999/xlink" x="0px" y="0px"
	 viewBox="0 0 100 100" style="enable-background:new 0 0 100 100;" xml:space="preserve">
<style type="text/css">
	.st0{fill:#F7931E;}
</style>
<g>
	<path class="st0" d="M90,100H10c-5.5,0-10-4.5-10-10V10C0,4.5,4.5,0,10,0h80c5.5,0,10,4.5,10,10v80C100,95.5,95.5,100,90,100z"/>
</g>
<rect x="21" y="6" width="8" height="38"/>
<rect x="21" y="6" transform="matrix(6.123234e-17 -1 1 6.123234e-17 -2.273737e-13 50)" width="8" height="38"/>
<rect x="71" y="57" transform="matrix(-1.836970e-16 1 -1 -1.836970e-16 151 1)" width="8" height="38"/>
<rect x="71" y="6" transform="matrix(-1.836970e-16 1 -1 -1.836970e-16 100 -50)" width="8" height="38"/>
<circle cx="75" cy="14" r="5"/>
<circle cx="75" cy="35" r="5"/>
<rect x="21" y="57" transform="matrix(0.7071 0.7071 -0.7071 0.7071 61.0624 4.5822)" width="8" height="38"/>
<rect x="21" y="6" width="8" height="38"/>
<rect x="21" y="57" transform="matrix(0.7071 -0.7071 0.7071 0.7071 -46.4178 39.9376)" width="8" height="38"/>
</svg>
