<?xml version="1.0" encoding="utf-8"?>
<!-- Generator: Adobe Illustrator 23.1.0, SVG Export Plug-In . SVG Version: 6.00 Build 0)  -->
<svg version="1.1" id="Слой_1" xmlns="http://www.w3.org/2000/svg" xmlns:xlink="http://www.w3.org/1999/xlink" x="0px" y="0px"
	 viewBox="0 0 50 50" style="enable-background:new 0 0 50 50;" xml:space="preserve">
<style type="text/css">
	.st0{fill:#010101;}
	.st1{fill:#7A7A7A;}
	.st2{fill:#E7E7E7;}
</style>
<path class="st0" d="M-254,145c-52,0-104,0-155.9,0.1c-3.4,0-4.1-0.7-4.1-4.1c0.1-77.3,0.1-154.6,0-231.9c0-3.4,0.7-4.1,4.1-4.1
	c104,0.1,207.9,0.1,311.9,0c3.4,0,4.1,0.7,4.1,4.1c-0.1,77.3-0.1,154.6,0,231.9c0,3.4-0.7,4.1-4.1,4.1C-150,144.9-202,145-254,145z
	 M-245,70.3c19.5,0,38.9,0.1,58.4,0c9-0.1,12.5-3.6,12.5-12.5c0.1-22.6,0.1-45.3,0-67.9c0-7.2-4.2-11.4-11.4-11.6
	c-4.8-0.2-9.7-0.4-14.5,0c-7.9,0.7-13.5-2-16.7-9.5c-2.3-5.5-6.7-7.8-12.7-7.7c-10,0.1-20,0.2-30,0c-6.8-0.1-11.3,2.7-13.9,9.1
	c-2.2,5.3-6.2,8.4-12.4,8.2c-5.5-0.2-11-0.1-16.5,0c-9.2,0.1-13.2,4-13.2,13c0,22,0,43.9,0.1,65.9c0,9.6,3.6,13.1,13.4,13.2
	C-282.9,70.4-263.9,70.3-245,70.3z M-294.3-26.9c1.6-1,5.7,2.1,5.6-2.5c-0.1-4-3.7-2.7-6.1-2.8c-1.3-0.1-2.6,0-3.9,0.2
	c-1.5,0.3-2.1,1.4-2,2.9c0.1,1.8,1.1,2.2,2.6,2.2C-297-26.9-295.9-26.9-294.3-26.9z"/>
<path class="st1" d="M-294.3-26.9c-1.5,0-2.7,0-3.8,0c-1.5,0-2.5-0.4-2.6-2.2c0-1.5,0.5-2.6,2-2.9c1.3-0.3,2.6-0.3,3.9-0.2
	c2.4,0.1,6.1-1.2,6.1,2.8C-288.6-24.8-292.8-28-294.3-26.9z"/>
<path class="st0" d="M-245,66.1c-18.8,0-37.6,0-56.4,0c-7.8,0-9.6-1.8-9.6-9.8c0-21.3,0-42.6,0-63.9c0-8.1,2-10.1,10-10.2
	c5.2-0.1,10.3-0.2,15.5,0c7.8,0.3,13.1-3.5,16-10.3c2.1-5.1,5.7-6.9,10.8-6.9c9.7,0.1,19.3,0.1,29,0c4.3,0,7.4,1.6,9.2,5.5
	c4,9,10.8,12.8,20.7,11.7c4.4-0.5,9-0.2,13.5-0.1c5.4,0.2,8.3,3,8.3,8.4c0.1,22.3,0.1,44.6,0,66.9c0,6.3-2.5,8.5-9,8.6
	C-206.4,66.2-225.7,66.1-245,66.1z M-203.9,18.3c-2.1-0.1-2.9-0.3-3.7-0.2c-4.5,0.8-6.2-0.9-7.2-5.6c-4.3-19.6-25.5-29.3-43-20.1
	c-1.1,0.6-3.5,0.8-2.2,3c0.8,1.4,1.7,3.5,4.2,2c1-0.6,2.2-0.8,3.2-1.3c12.5-5.7,27.3,3.3,31,13.1c3.1,8.4,3.2,8.4-5.7,8.9
	c-0.2,0-0.3,0-0.5,0c-2.1-0.1-3,0.6-1.4,2.5c3.2,3.8,6.5,7.5,9.7,11.3c1.2,1.5,2.5,1.7,3.7,0.3C-211.9,27.9-208.3,23.5-203.9,18.3z
	 M-285.4,18.3c3.5,0,6.1,0.1,8.7,0c1.8-0.1,2.6,0.4,2.8,2.4c0.7,9.5,5.2,16.4,12.8,22.5c8.2,6.6,23.3,7.8,33.4,1.1
	c1.3-0.9,2.1-1.8,1-3.2c-0.8-1-1.5-2.8-3.5-1.7c-1,0.6-2.1,1-3.1,1.5c-14.3,6.6-29.3,1.2-34-15.5c-2-7.2-2.2-7.1,5.2-7.3
	c0.9,0,2,0.5,2.7-0.9c-3.6-4.3-7.2-8.5-10.7-12.9c-1.3-1.6-2.1-2.1-3.7-0.1C-277.3,8.8-281.1,13.1-285.4,18.3z"/>
<path class="st2" d="M-203.9,18.3c-4.4,5.2-8.1,9.6-11.8,13.9c-1.2,1.4-2.4,1.2-3.7-0.3c-3.2-3.8-6.5-7.5-9.7-11.3
	c-1.6-1.9-0.7-2.6,1.4-2.5c0.2,0,0.3,0,0.5,0c8.9-0.6,8.8-0.5,5.7-8.9c-3.7-9.8-18.4-18.8-31-13.1c-1.1,0.5-2.2,0.7-3.2,1.3
	c-2.5,1.5-3.4-0.6-4.2-2c-1.3-2.2,1-2.4,2.2-3c17.5-9.3,38.7,0.5,43,20.1c1,4.7,2.7,6.4,7.2,5.6C-206.8,18-206,18.2-203.9,18.3z"/>
<path class="st2" d="M-285.4,18.3c4.3-5.2,8.1-9.5,11.6-14c1.5-2,2.4-1.5,3.7,0.1c3.5,4.4,7.2,8.6,10.7,12.9
	c-0.7,1.5-1.8,0.9-2.7,0.9c-7.5,0.2-7.2,0.1-5.2,7.3c4.7,16.7,19.7,22.1,34,15.5c1.1-0.5,2.1-0.9,3.1-1.5c2-1.1,2.7,0.7,3.5,1.7
	c1.1,1.3,0.3,2.3-1,3.2c-10.1,6.6-25.2,5.5-33.4-1.1c-7.6-6.2-12.1-13-12.8-22.5c-0.2-2-1-2.5-2.8-2.4
	C-279.3,18.4-282,18.3-285.4,18.3z"/>
<g>
	<path d="M34.8,24.6c0.8-0.9,1.4-1.6,2.1-2.4c1.4-1.6,2.8-3.2,4.1-4.7c0.4-0.4,0.4-0.4,0.8,0c2,2.2,3.9,4.5,5.9,6.7
		c0.1,0.1,0.1,0.2,0.3,0.4c-0.3,0-0.4,0.1-0.6,0.1c-1.2,0-2.3,0-3.5,0c-0.4,0-0.6,0.1-0.6,0.6c-0.1,3.7-1.2,7.1-3.4,10.1
		c-2,2.8-4.7,4.9-8,6.3c-2.8,1.1-5.7,1.5-8.7,1.2c-4.9-0.5-8.9-2.8-12-6.5c-0.2-0.3-0.2-0.5,0-0.7c0.6-0.7,1.2-1.4,1.8-2.1
		c0.4-0.5,0.4-0.5,0.8,0c1.4,1.8,3.1,3.2,5.2,4.2c2.6,1.2,5.2,1.7,8.1,1.2c4.4-0.7,7.8-2.9,10.3-6.7c1.4-2.1,2-4.5,2.2-6.9
		c0-0.6,0-0.6-0.6-0.6c-1.1,0-2.3,0-3.4,0C35.4,24.7,35.2,24.7,34.8,24.6z"/>
	<path d="M2.4,24.8c0.2,0,0.4-0.1,0.6-0.1c1.2,0,2.3,0,3.5,0c0.4,0,0.6-0.1,0.6-0.6C7.1,20.4,8.3,17,10.5,14c2-2.8,4.6-4.8,7.8-6.1
		c2.9-1.2,5.8-1.6,8.9-1.2C32,7.2,36,9.4,39.1,13.1c0.3,0.3,0.3,0.5,0,0.8c-0.6,0.7-1.3,1.4-1.9,2.1c-0.3,0.3-0.4,0.3-0.6,0
		c-1.5-2-3.5-3.6-5.9-4.5c-2.4-1-4.9-1.4-7.5-1c-3.4,0.5-6.3,2-8.7,4.5c-1.7,1.9-2.9,4-3.4,6.6c-0.2,0.8-0.3,1.6-0.4,2.5
		c-0.1,0.7,0,0.7,0.7,0.7c1.1,0,2.2,0,3.3,0c0.2,0,0.4,0,0.6,0c-0.1,0.2-0.1,0.3-0.2,0.3c-2,2.3-4,4.6-6,6.9c-0.2,0.2-0.4,0.3-0.6,0
		c-2-2.3-4.1-4.7-6.1-7C2.5,25,2.5,24.9,2.4,24.8z"/>
</g>
</svg>
