<?xml version="1.0" encoding="utf-8"?>
<!-- Generator: Adobe Illustrator 23.1.0, SVG Export Plug-In . SVG Version: 6.00 Build 0)  -->
<svg version="1.1" id="Слой_1" xmlns="http://www.w3.org/2000/svg" xmlns:xlink="http://www.w3.org/1999/xlink" x="0px" y="0px"
	 viewBox="0 0 10 10" style="enable-background:new 0 0 10 10;" xml:space="preserve">
<path d="M5,0.1C2.3,0.1,0.1,2.3,0.1,5c0,2.7,2.2,4.9,4.9,4.9c2.7,0,4.9-2.2,4.9-4.9C9.9,2.3,7.7,0.1,5,0.1z M6,5
	c0.4,0.4,0.8,0.8,1.1,1.1C7.5,6.5,7.4,7.1,7,7.3C6.7,7.5,6.4,7.4,6.2,7.2C6,7,5.8,6.8,5.6,6.6C5.4,6.4,5.2,6.2,5,6C5,6,5,6,5,6
	C4.6,6.4,4.2,6.8,3.8,7.2c-0.3,0.3-0.7,0.3-1,0c-0.3-0.3-0.3-0.7,0-1C3.2,5.8,3.6,5.4,4,5C4,5,4,5,4,5C3.6,4.6,3.2,4.2,2.8,3.8
	C2.5,3.5,2.6,2.9,3,2.7c0.1-0.1,0.2-0.1,0.3-0.1c0.2,0,0.4,0.1,0.5,0.2C4.2,3.2,4.6,3.6,5,4C5,4,5,4,5,4c0.4-0.4,0.8-0.8,1.1-1.1
	c0.3-0.3,0.7-0.3,1,0c0.3,0.3,0.3,0.7,0,1C7.1,3.9,7,4,6.8,4.2C6.6,4.4,6.3,4.7,6,5C6,5,6,5,6,5z"/>
<g>
</g>
<g>
</g>
<g>
</g>
<g>
</g>
<g>
</g>
<g>
</g>
<g>
</g>
<g>
</g>
<g>
</g>
<g>
</g>
<g>
</g>
<g>
</g>
<g>
</g>
<g>
</g>
<g>
</g>
</svg>
