<?xml version="1.0" encoding="utf-8"?>
<!-- Generator: Adobe Illustrator 23.1.0, SVG Export Plug-In . SVG Version: 6.00 Build 0)  -->
<svg version="1.1" id="Слой_1" xmlns="http://www.w3.org/2000/svg" xmlns:xlink="http://www.w3.org/1999/xlink" x="0px" y="0px"
	 viewBox="0 0 100 100" style="enable-background:new 0 0 100 100;" xml:space="preserve">
<style type="text/css">
	.st0{fill:#D2C6B1;}
	.st1{fill:#2828C8;}
	.st2{fill:#303437;}
	.st3{fill:#FFFFFF;}
</style>
<path class="st0" d="M99.4,0.9c0-1,0.1-0.9-0.9-0.9C66.2,0,33.8,0,1.4,0C0.6,0,0.6,0,0.6,0.9c0,26.4,0,52.9,0,79.3
	c0,1.3,0.7,1.9,2,1.9c2.7,0,5.4,0,8.1,0c0,0,0,0,0,0v0.9c-0.1,1,0,2,0,3c0,0,0,0,0,0v0h0c0,1,0.5,1.4,1.5,1.4c3.7,0,7.4,0,11.1,0
	c0.2,0,0.4,0,0.7,0c-0.1,0.2-0.2,0.2-0.2,0.3c-2,2.2-4.1,4.3-6.1,6.5c-0.1,0.1-0.3,0.2-0.3,0.4l-0.1,1.1c0,1.1,0,2.1,0,3.2
	c0,0.8,0,0.8,0.8,0.8c19.1,0,38.1,0,57.2,0c2.3,0,4.5,0,6.8,0c0.4,0,0.6-0.1,0.6-0.6c0-1.4,0-2.7,0-4.1c0-0.3-0.1-0.6-0.3-0.8
	c-0.9-0.9-1.7-1.8-2.5-2.7c-1-1.1-2.1-2.2-3.1-3.3c-0.2-0.2-0.4-0.5-0.7-0.9c0.4,0,0.6,0,0.8,0c3.5,0,7.1,0,10.6,0
	c0.3,0,0.6,0,0.9-0.1c0.6-0.2,1-0.5,1.1-1.1c0.1-1.2,0.1-2.4,0-3.6c0,0,0,0,0,0v-0.6c0,0,0,0,0,0c2.8,0,5.5,0,8.3,0
	c0.9,0,1.8-0.9,1.8-1.8C99.4,53.9,99.4,27.4,99.4,0.9z M13.2,13.4c0-0.6,0.2-0.7,0.7-0.7c12,0,24,0,36,0c12,0,24,0,36,0
	c0.8,0,0.8,0,0.8,0.8c0,18,0,36.1,0,54.1c0,0.6-0.2,0.8-0.8,0.8c-24,0-48,0-72,0c-0.6,0-0.8-0.1-0.8-0.8
	C13.2,49.6,13.2,31.5,13.2,13.4z M91,76.4c-0.3,0-0.5-0.2-0.5-0.5c0-0.3,0.2-0.4,0.4-0.5c0.3,0,0.5,0.2,0.5,0.5
	C91.5,76.2,91.3,76.4,91,76.4z"/>
<path class="st1" d="M85.9,12.7c0.8,0,0.8,0,0.8,0.8c0,18,0,36.1,0,54.1c0,0.6-0.2,0.8-0.8,0.8c-24,0-48,0-72,0
	c-0.6,0-0.8-0.1-0.8-0.8c0-18.1,0-36.1,0-54.2c0-0.6,0.2-0.7,0.7-0.7"/>
<path class="st2" d="M90.9,74.1c1,0.1,1.8,0.7,1.9,1.7c0.1,1.2-0.7,1.9-1.8,1.9c-1.1,0.1-1.7-0.6-1.8-1.7
	C89.2,74.9,89.9,74.4,90.9,74.1z"/>
<rect x="17.9" y="16.4" class="st3" width="13.3" height="2.2"/>
<polygon class="st3" points="31.2,21.2 17.9,21.2 17.9,23.3 31.2,23.3 44.5,23.3 44.5,21.2 "/>
</svg>
