<?xml version="1.0" encoding="utf-8"?>
<!-- Generator: Adobe Illustrator 23.1.0, SVG Export Plug-In . SVG Version: 6.00 Build 0)  -->
<svg version="1.1" id="Слой_1" xmlns="http://www.w3.org/2000/svg" xmlns:xlink="http://www.w3.org/1999/xlink" x="0px" y="0px"
	 viewBox="0 0 100 100" style="enable-background:new 0 0 100 100;" xml:space="preserve">
<style type="text/css">
	.st0{fill:#F5CC28;}
	.st1{fill:#E6E6E6;}
	.st2{fill:#A0A0A0;}
</style>
<path class="st0" d="M84.9,93.8h-70c-4.8,0-8.8-3.9-8.8-8.8V15c0-4.8,3.9-8.8,8.8-8.8h70c4.8,0,8.8,3.9,8.8,8.8v70
	C93.7,89.8,89.7,93.8,84.9,93.8z"/>
<path class="st1" d="M93.7,22.9v63c0,4.3-3.9,7.9-8.8,7.9h-70c-4.8,0-8.8-3.5-8.8-7.9v-63"/>
<rect x="6.2" y="48.2" class="st2" width="87.6" height="2.6"/>
<rect x="6.2" y="61.4" class="st2" width="87.6" height="2.6"/>
<rect x="6.2" y="35.1" class="st2" width="87.6" height="2.6"/>
<rect x="6.2" y="74.5" class="st2" width="87.6" height="2.6"/>
</svg>
