<?xml version="1.0" encoding="utf-8"?>
<!-- Generator: Adobe Illustrator 23.1.0, SVG Export Plug-In . SVG Version: 6.00 Build 0)  -->
<svg version="1.1" id="Слой_1" xmlns="http://www.w3.org/2000/svg" xmlns:xlink="http://www.w3.org/1999/xlink" x="0px" y="0px"
	 viewBox="0 0 100 100" style="enable-background:new 0 0 100 100;" xml:space="preserve">
<style type="text/css">
	.st0{fill:#F5CC28;}
	.st1{fill:#E6E6E6;}
	.st2{fill:#A0A0A0;}
</style>
<path class="st0" d="M89.9,100h-80c-5.5,0-10-4.5-10-10V10c0-5.5,4.5-10,10-10h80c5.5,0,10,4.5,10,10v80
	C99.9,95.5,95.4,100,89.9,100z"/>
<path class="st1" d="M99.9,19v72c0,4.9-4.5,9-10,9h-80c-5.5,0-10-4-10-9V19"/>
<rect x="0" y="48" class="st2" width="100" height="3"/>
<rect y="63" class="st2" width="100" height="3"/>
<rect y="33" class="st2" width="100" height="3"/>
<rect y="78" class="st2" width="100" height="3"/>
</svg>
