<?xml version="1.0" encoding="utf-8"?>
<!-- Generator: Adobe Illustrator 23.1.0, SVG Export Plug-In . SVG Version: 6.00 Build 0)  -->
<svg version="1.1" id="Слой_1" xmlns="http://www.w3.org/2000/svg" xmlns:xlink="http://www.w3.org/1999/xlink" x="0px" y="0px"
	 viewBox="0 0 100 100" style="enable-background:new 0 0 100 100;" xml:space="preserve">
<style type="text/css">
	.st0{fill:url(#SVGID_1_);}
	.st1{fill:#FFFFFF;}
</style>
<linearGradient id="SVGID_1_" gradientUnits="userSpaceOnUse" x1="10.0182" y1="70.0136" x2="99.4601" y2="25.2418">
	<stop  offset="8.419802e-02" style="stop-color:#F15A24"/>
	<stop  offset="0.2106" style="stop-color:#F06123"/>
	<stop  offset="0.3925" style="stop-color:#EE7421"/>
	<stop  offset="0.563" style="stop-color:#EB8C1E"/>
	<stop  offset="0.6139" style="stop-color:#DC841E"/>
	<stop  offset="0.7123" style="stop-color:#B46E1D"/>
	<stop  offset="0.8482" style="stop-color:#734B1C"/>
	<stop  offset="1" style="stop-color:#23201B"/>
	<stop  offset="1" style="stop-color:#090907"/>
	<stop  offset="1" style="stop-color:#000000"/>
</linearGradient>
<circle class="st0" cx="50" cy="50" r="50"/>
<polygon class="st1" points="31,19 22.5,19 7,100 16.9,100 "/>
<polygon class="st1" points="32,19 40.5,19 56,100 46.1,100 "/>
<rect x="25" y="19" class="st1" width="13" height="9"/>
<rect x="21" y="56" class="st1" width="21" height="5"/>
<path class="st1" d="M66.5,96c-1.5,1-3.1,1-4.6,0c-1.7-19.6-1.8-36.2,0-49c1.6,1.2,3.2,1,4.6,0C67.2,56.9,67.1,73.8,66.5,96z"/>
<path class="st1" d="M67,45c-2,2.2-4,2.2-6,0c1.8-1.3,2.2-8.6,2-10c2.2,1.2,3.3,2.5,4,4C67,39,70,41,67,45z"/>
</svg>
