<?xml version="1.0" encoding="utf-8"?>
<!-- Generator: Adobe Illustrator 23.1.0, SVG Export Plug-In . SVG Version: 6.00 Build 0)  -->
<svg version="1.1" id="Слой_1" xmlns="http://www.w3.org/2000/svg" xmlns:xlink="http://www.w3.org/1999/xlink" x="0px" y="0px"
	 viewBox="0 0 50 50" style="enable-background:new 0 0 50 50;" xml:space="preserve">
<style type="text/css">
	.st0{fill:#C7B299;}
	.st1{fill:#F7931E;}
	.st2{fill:#A67C52;}
	.st3{fill:#0000FF;}
	.st4{fill:#FFFF00;}
	.st5{fill:#FF0000;}
	.st6{fill:#009245;}
</style>
<path d="M37.6,17.4c0.8-0.7,1.7-1.4,2.5-2.1c1.9-1.6,3.8-3.1,6-4.4c0.4-0.3,0.9-0.5,1.4-0.6c1-0.3,1.8,0.5,1.5,1.5
	c-0.2,0.6-0.4,1.2-0.8,1.7c-1.4,2.3-3.2,4.5-4.9,6.6c-1.4,1.6-2.8,3.2-4.1,4.9C39.1,25,39,25.2,39,25.4c-0.4,8.1-4.2,14.1-11.2,18
	c-3.6,2-7.5,2.8-11.6,2.4c-4.2-0.4-8-2-11.2-4.8c-1.4-1.3-2.4-2.8-2.8-4.7c-0.5-2.6,0.1-4.8,2.1-6.6c0.7-0.7,1.5-1.2,2.3-1.8
	c0.7-0.6,1.4-1.2,1.6-2.2c0.3-1.3,0-2.5-1.1-3.4c-0.7-0.6-1.5-1.2-2.2-1.8c-1.2-1-2.2-2.1-2.6-3.7C1.6,14.2,2.2,11.8,4,9.7
	c1.6-2,3.7-3.3,6-4.2c2.7-1.2,5.6-1.9,8.5-1.7c6.7,0.4,12.1,3.2,16.3,8.5c1.1,1.4,2,3,2.6,4.7C37.5,17.1,37.5,17.2,37.6,17.4z
	 M37.1,27.4c-0.1,0-0.1-0.1-0.2-0.1c-0.1,0.1-0.1,0.3-0.2,0.4c-1.6,1.8-3.3,3.6-4.9,5.3c-0.7,0.7-1.2,1.5-1.6,2.5
	c-1.1,3.2-3.3,5.2-6.8,5.6c-2.3,0.3-4.5-0.1-6.7-0.9c-0.6-0.2-0.8-0.5-0.7-1c0-0.4,0.3-0.7,0.9-0.8c0.9-0.1,1.4-0.5,1.7-1.4
	c0.1-0.3,0.2-0.5,0.2-0.8c0.2-0.7,0.3-1.4,0.5-2.1c0.3-1.1,0.6-2.2,1.3-3.1c1.1-1.4,2.5-2,4.2-2.3c0.2,0,0.5-0.1,0.7-0.3
	c3.5-3.2,6.9-6.5,10.4-9.7c0.2-0.2,0.2-0.4,0.1-0.6c-3.2-7.7-8.9-11.9-17.1-12.7C15.3,5.2,12,6.3,8.9,8C7.3,8.8,6,9.9,4.9,11.3
	c-1.7,2.4-1.7,5.9,1,7.9c0.6,0.5,1.3,1,1.9,1.4c1.3,1,2.1,2.3,2.2,4c0.1,1.8-0.7,3.3-2.1,4.4c-0.7,0.6-1.5,1.1-2.2,1.7
	C4,32.2,3.3,34.4,4,36.6c0.6,1.8,1.8,3.1,3.2,4.1c4.7,3.3,9.9,4.5,15.5,2.9c7.5-2.1,12.2-7.1,14.1-14.7C36.9,28.4,37,27.9,37.1,27.4
	z M26.9,29.5c1,1,2,1.9,3,2.9c0-0.1,0.1-0.2,0.2-0.3c3.9-4,7.7-8.2,11.2-12.5c1.7-2.1,3.3-4.3,5-6.5c0.1-0.2,0.2-0.3,0.3-0.5
	c0,0-0.1-0.1-0.1-0.1C39.5,17.6,33.2,23.5,26.9,29.5z M19.5,39.2c0.5,0.1,1.1,0.2,1.6,0.2c1.6,0.1,3.1,0,4.6-0.8
	c1.7-1,2.6-2.6,3.1-4.4c0-0.1,0-0.3-0.1-0.4c-1-1-2-2.1-3.1-3.1c-0.1-0.1-0.3-0.2-0.5-0.1c-2.1,0.3-3.5,1.5-4,3.6
	c-0.2,0.9-0.4,1.9-0.7,2.8C20.2,37.7,19.8,38.4,19.5,39.2z"/>
<path class="st0" d="M37.1,27.4c-0.1,0.5-0.1,1-0.3,1.5c-1.9,7.6-6.6,12.6-14.1,14.7C17.2,45.2,12,44,7.3,40.7
	c-1.5-1-2.7-2.4-3.2-4.1c-0.7-2.1,0-4.4,1.7-5.8c0.7-0.6,1.5-1.1,2.2-1.7c1.4-1.1,2.2-2.5,2.1-4.4c-0.1-1.7-0.9-3-2.2-4
	c-0.6-0.5-1.2-1-1.9-1.4c-2.7-2-2.8-5.5-1-7.9C6,9.9,7.3,8.8,8.9,8c3.1-1.7,6.5-2.7,10-2.4c8.3,0.8,13.9,5,17.1,12.7
	c0.1,0.3,0.1,0.4-0.1,0.6c-3.5,3.2-6.9,6.5-10.4,9.7c-0.2,0.2-0.4,0.2-0.7,0.3c-1.7,0.3-3.1,0.9-4.2,2.3c-0.7,0.9-1.1,2-1.3,3.1
	c-0.2,0.7-0.3,1.4-0.5,2.1c-0.1,0.3-0.2,0.5-0.2,0.8c-0.3,0.8-0.8,1.3-1.7,1.4c-0.6,0.1-0.9,0.3-0.9,0.8c0,0.5,0.2,0.8,0.7,1
	c2.2,0.8,4.4,1.2,6.7,0.9c3.4-0.5,5.7-2.4,6.8-5.6c0.3-1,0.8-1.8,1.6-2.5c1.7-1.7,3.3-3.5,4.9-5.3c0.1-0.1,0.1-0.2,0.2-0.4
	C37,27.3,37,27.4,37.1,27.4z M15.7,34.8c0-2.1-1.7-3.8-3.8-3.8c-2.1,0-3.8,1.7-3.8,3.8c0,2.1,1.7,3.8,3.8,3.8
	C14,38.6,15.7,36.9,15.7,34.8z M21,9.4c-2.1,0-3.8,1.6-3.8,3.7c0,2.1,1.7,3.8,3.8,3.9c2.1,0,3.8-1.7,3.8-3.7
	C24.8,11.1,23.1,9.4,21,9.4z M7,16.1c0,2.1,1.8,3.8,3.9,3.7c2.1,0,3.7-1.8,3.7-3.9c-0.1-2.1-1.8-3.7-4-3.7C8.7,12.3,7,14.1,7,16.1z
	 M29.6,23c2.2,0,3.8-1.7,3.8-3.9c0-2.1-1.8-3.7-3.8-3.7c-2.1,0-3.8,1.8-3.8,3.9C25.8,21.3,27.5,23,29.6,23z"/>
<path class="st1" d="M26.9,29.5c6.3-6,12.6-11.9,19.6-17c0,0,0.1,0.1,0.1,0.1c-0.1,0.2-0.2,0.3-0.3,0.5c-1.7,2.2-3.3,4.4-5,6.5
	C37.8,24,34,28.1,30.1,32.1c-0.1,0.1-0.1,0.2-0.2,0.3C28.9,31.4,27.9,30.5,26.9,29.5z"/>
<path class="st2" d="M19.5,39.2c0.3-0.8,0.7-1.5,1-2.3c0.3-0.9,0.4-1.9,0.7-2.8c0.5-2.1,1.9-3.3,4-3.6c0.1,0,0.4,0,0.5,0.1
	c1,1,2.1,2.1,3.1,3.1c0.1,0.1,0.2,0.3,0.1,0.4c-0.5,1.8-1.4,3.4-3.1,4.4c-1.4,0.8-3,1-4.6,0.8C20.5,39.4,20,39.3,19.5,39.2z"/>
<path d="M15.7,34.8c0,2.1-1.7,3.8-3.8,3.8c-2.1,0-3.8-1.8-3.8-3.8c0-2.1,1.7-3.8,3.8-3.8C14,31.1,15.7,32.8,15.7,34.8z M14,34.8
	c0-1.1-0.9-2-2-2c-1.1,0-2.1,0.9-2.1,2c0,1.1,0.9,2.1,2.1,2.1C13.1,36.9,14,36,14,34.8z"/>
<path d="M21,9.4c2.1,0,3.8,1.8,3.8,3.8c0,2.1-1.7,3.8-3.8,3.7c-2.1,0-3.8-1.7-3.8-3.9C17.2,11,18.9,9.4,21,9.4z M18.9,13.2
	c0,1.1,0.9,2.1,2.1,2.1c1.1,0,2.1-0.9,2.1-2c0-1.1-0.9-2.1-2.1-2.1C19.8,11.1,18.9,12,18.9,13.2z"/>
<path d="M7,16.1c0-2,1.6-3.8,3.7-3.8c2.2-0.1,3.9,1.6,4,3.7c0.1,2.1-1.6,3.8-3.7,3.9C8.8,19.9,7.1,18.3,7,16.1z M10.8,14
	c-1.2,0-2.1,0.9-2.1,2c0,1.1,0.9,2,2.1,2c1.1,0,2-0.9,2-2C12.9,14.9,12,14,10.8,14z"/>
<path d="M29.6,23c-2.1,0-3.8-1.7-3.8-3.7c0-2.1,1.6-3.8,3.8-3.9c2.1,0,3.8,1.6,3.8,3.7C33.4,21.3,31.7,22.9,29.6,23z M31.6,19.2
	c0-1.1-0.9-2.1-2.1-2c-1.1,0-2.1,0.9-2.1,2c0,1.1,0.9,2,2.1,2C30.7,21.2,31.6,20.3,31.6,19.2z"/>
<path class="st3" d="M14,34.8c0,1.1-0.9,2.1-2.1,2.1c-1.1,0-2.1-0.9-2.1-2.1c0-1.1,1-2,2.1-2C13.1,32.8,14,33.7,14,34.8z"/>
<path class="st4" d="M18.9,13.2c0-1.1,0.9-2,2-2c1.2,0,2.1,0.9,2.1,2.1c0,1.1-1,2-2.1,2C19.8,15.2,18.9,14.3,18.9,13.2z"/>
<path class="st5" d="M10.8,14c1.2,0,2.1,0.9,2.1,2c0,1.1-0.9,2-2,2c-1.2,0-2.1-0.9-2.1-2C8.8,14.9,9.7,14,10.8,14z"/>
<path class="st6" d="M31.6,19.2c0,1.1-0.9,2-2,2c-1.1,0-2.1-0.9-2.1-2c0-1.1,0.9-2,2.1-2C30.7,17.2,31.6,18.1,31.6,19.2z"/>
</svg>
