<?xml version="1.0" encoding="utf-8"?>
<!-- Generator: Adobe Illustrator 23.1.0, SVG Export Plug-In . SVG Version: 6.00 Build 0)  -->
<svg version="1.1" id="Слой_1" xmlns="http://www.w3.org/2000/svg" xmlns:xlink="http://www.w3.org/1999/xlink" x="0px" y="0px"
	 viewBox="0 0 50 50" style="enable-background:new 0 0 50 50;" xml:space="preserve">
<style type="text/css">
	.st0{fill:#76B2D3;}
	.st1{fill:#FEFEFE;}
	.st2{fill:#4F5D73;}
	.st3{fill:#6695AF;}
	.st4{fill:#475163;}
</style>
<path class="st0" d="M24,1c0.9,0,1.7,0,2.6,0c0,0.1,0.1,0,0.2,0c1,0.1,2.1,0.2,3.1,0.4c5.5,1.1,10.2,3.7,13.8,8
	c4.4,5.1,6.3,11.1,5.8,17.9c-0.1,2-0.6,4-1.2,5.9c-1.4,4-3.7,7.5-6.9,10.3c-2.1,1.9-4.6,3.4-7.2,4.4c-3.5,1.4-7.2,1.9-10.9,1.6
	c-2.4-0.2-4.7-0.7-6.9-1.6c-3.8-1.5-7-3.8-9.6-6.9c-3.3-3.9-5.2-8.5-5.7-13.6c0-0.3,0-0.5-0.1-0.8c0-0.9,0-1.7,0-2.6
	c0.1,0,0-0.1,0-0.2c0.1-1.3,0.3-2.6,0.6-3.9C2.9,14.5,5.7,10,10,6.4c3.9-3.1,8.3-4.9,13.3-5.3C23.5,1.1,23.8,1.1,24,1z M38.9,37.1
	c0-0.3,0-0.6,0-0.9c0-1.5,0-3.1,0-4.6c0-3.1,0-6.2,0-9.2c0-0.5-0.1-1-0.4-1.5c-0.5-0.7-1.2-0.9-2-0.9c-5.8,0-11.6,0-17.4,0
	c-0.1,0-0.2,0-0.3,0c0-0.5,0-1.1,0.1-1.6c0.2-1.6,0.9-2.9,2.2-4c1.5-1.3,3.1-1.8,5-1.5c1.9,0.2,3.4,1.2,4.5,2.8
	c0.1,0.2,0.3,0.3,0.4,0.5c0.7,0.7,1.8,0.7,2.5,0.1c0.7-0.6,0.9-1.7,0.4-2.5c-0.4-0.6-0.8-1.2-1.3-1.7c-2.5-2.5-5.6-3.6-9.1-2.9
	c-3.7,0.7-6.2,2.8-7.7,6.2c-0.6,1.5-0.8,3.1-0.8,4.7c-0.4,0-0.8,0-1.2,0c-0.4,0-0.8,0.1-1.2,0.4c-0.7,0.5-1,1.1-1,2
	c0,4.6,0,9.3,0,13.9c0,0.3,0,0.6,0,0.9c-0.1,0.4,0,0.8,0,1.2c0,1.2,1,2.2,2.2,2.2c7.6,0,15.2,0,22.9,0c0.6,0,1.2-0.2,1.6-0.7
	C39.1,39.1,39,38.1,38.9,37.1z"/>
<path class="st1" d="M18.9,20c0.1,0,0.2,0,0.3,0c5.8,0,11.6,0,17.4,0c0.8,0,1.5,0.3,2,0.9c0.3,0.4,0.4,0.9,0.4,1.5
	c0,3.1,0,6.2,0,9.2c0,1.5,0,3.1,0,4.6c0,0.3,0,0.6,0,0.9c-0.3,1.2-1.1,1.8-2.3,1.8c-7.5,0-15.1,0-22.6,0c-1.2,0-2.1-0.7-2.3-1.8
	c0-0.3,0-0.6,0-0.9c0-4.6,0-9.3,0-13.9c0-0.8,0.3-1.5,1-2c0.4-0.2,0.8-0.4,1.2-0.4c0.4,0,0.8,0,1.2,0C16.3,20,17.6,20,18.9,20z
	 M22.4,29c0.2,0.8,0.6,1.3,1.2,1.8c0.2,0.1,0.2,0.2,0.2,0.4c0,0.6,0,1.1,0,1.7c0,0.2,0,0.4,0.1,0.5c0.2,0.7,0.9,1.1,1.6,1
	c0.8-0.1,1.3-0.7,1.4-1.5c0-0.6,0-1.2,0-1.8c0-0.1,0-0.2,0.2-0.3c0.7-0.4,1.1-1,1.3-1.8c0.1-0.2,0.1-0.4,0.1-0.5
	c0.1-1.4-0.8-2.6-2.1-3c-1.3-0.4-2.7,0.1-3.5,1.3C22.3,27.4,22.1,28.2,22.4,29z"/>
<path class="st2" d="M18.9,20c-1.3,0-2.5,0-3.8,0c-0.1-1.6,0.1-3.2,0.8-4.7c1.5-3.4,4-5.6,7.7-6.2c3.5-0.6,6.6,0.4,9.1,2.9
	c0.5,0.5,0.9,1.1,1.3,1.7c0.5,0.8,0.3,1.9-0.4,2.5c-0.7,0.6-1.8,0.6-2.5-0.1c-0.2-0.1-0.3-0.3-0.4-0.5c-1.1-1.5-2.6-2.5-4.5-2.8
	c-1.9-0.2-3.6,0.3-5,1.5c-1.2,1.1-1.9,2.4-2.2,4C18.8,18.9,18.9,19.4,18.9,20z"/>
<path class="st3" d="M11.7,37.1C12,38.3,12.8,39,14,39c7.5,0,15.1,0,22.6,0c1.2,0,2-0.7,2.3-1.8c0.1,1,0.1,1.9-0.6,2.7
	c-0.4,0.4-1,0.7-1.6,0.7c-7.6,0-15.2,0-22.9,0c-1.2,0-2.2-1-2.2-2.2C11.6,37.9,11.6,37.5,11.7,37.1z"/>
<path class="st2" d="M28.3,29c-0.2,0.8-0.6,1.4-1.3,1.8c-0.1,0.1-0.2,0.2-0.2,0.3c0,0.6,0,1.2,0,1.8c0,0.8-0.6,1.4-1.4,1.5
	c-0.7,0.1-1.4-0.4-1.6-1c-0.1-0.2-0.1-0.4-0.1-0.5c0-0.6,0-1.1,0-1.7c0-0.2,0-0.3-0.2-0.4c-0.6-0.4-1.1-1-1.2-1.8
	c0-0.1,0.1-0.1,0.1-0.2c0.4-1,1.1-1.6,2.1-1.9c1-0.3,2.4,0.2,3.1,1C27.9,28.3,28.1,28.6,28.3,29z"/>
<path class="st4" d="M28.3,29c-0.2-0.4-0.3-0.7-0.6-1.1c-0.7-0.9-2-1.3-3.1-1c-1,0.3-1.7,0.9-2.1,1.9c0,0.1-0.1,0.1-0.1,0.2
	c-0.2-0.8-0.1-1.6,0.4-2.3c0.7-1.2,2.1-1.7,3.5-1.3c1.3,0.4,2.2,1.7,2.1,3C28.3,28.7,28.3,28.8,28.3,29z"/>
</svg>
