<?xml version="1.0" encoding="utf-8"?>
<!-- Generator: Adobe Illustrator 23.1.0, SVG Export Plug-In . SVG Version: 6.00 Build 0)  -->
<svg version="1.1" id="Слой_1" xmlns="http://www.w3.org/2000/svg" xmlns:xlink="http://www.w3.org/1999/xlink" x="0px" y="0px"
	 viewBox="0 0 50 50" style="enable-background:new 0 0 50 50;" xml:space="preserve">
<path d="M14.1,32.9c-3.8-4.9-5.2-10.4-4-16.5c0.9-4.7,3.3-8.5,7.1-11.5c8.1-6.4,19.3-5.5,26.3,1.5c7.1,7.1,7.6,17.9,2.1,25.4
	c-3.3,4.6-7.8,7.3-13.4,8.1c-5.6,0.8-10.6-0.7-15.1-4.2c-1.3,1.4-2.6,2.7-4,4C10,42.9,6.9,46,3.8,49.1c-0.1,0.1-0.2,0.2-0.4,0.4
	c-0.9,0.8-2.1,0.8-2.9,0c-0.8-0.8-0.8-2,0-2.8C2.4,44.7,4.2,42.9,6,41c2.5-2.5,5.1-5.1,7.6-7.6C13.8,33.3,14,33.1,14.1,32.9z
	 M29.5,4.8c-8.7,0.1-15.7,7-15.6,15.7c0,8.7,7,15.6,15.6,15.6c8.6,0,15.7-7.1,15.7-15.7C45.2,11.8,38.1,4.8,29.5,4.8z"/>
</svg>
