<?xml version="1.0" encoding="utf-8"?>
<!-- Generator: Adobe Illustrator 23.1.0, SVG Export Plug-In . SVG Version: 6.00 Build 0)  -->
<svg version="1.1" id="Слой_1" xmlns="http://www.w3.org/2000/svg" xmlns:xlink="http://www.w3.org/1999/xlink" x="0px" y="0px"
	 viewBox="0 0 50 50" style="enable-background:new 0 0 50 50;" xml:space="preserve">
<style type="text/css">
	.st0{fill:#FFFFFF;}
</style>
<path class="st0" d="M23.8,25c0,5.6,0,11.3,0,16.9c0,0.9-0.2,1.7-1.1,2c-0.9,0.3-1.7,0-2.3-0.6c-3.2-3.3-6.5-6.6-9.7-10
	c-0.4-0.4-0.8-0.6-1.3-0.6c-2.3,0-4.6,0-6.9,0c-1.4,0-2.1-0.7-2.1-2.1c0-3.9,0-7.8,0-11.7c0-1.4,0.7-2.1,2.1-2.1c2.3,0,4.6,0,6.9,0
	c0.6,0,1.1-0.2,1.5-0.6c3-2.9,5.9-5.8,8.9-8.7c0.3-0.3,0.5-0.5,0.8-0.8C21,6,22,5.8,22.8,6.1c0.7,0.3,1.1,0.8,1.1,1.8
	C23.8,13.6,23.8,19.3,23.8,25z"/>
<path class="st0" d="M49,26c-0.2,8.2-3.9,15.7-11.5,21.2c-0.4,0.3-0.8,0.6-1.3,0.7c-1,0.2-1.9-0.3-2.3-1.2c-0.4-1-0.2-2,0.7-2.7
	c2-1.4,3.7-3,5.2-4.9c8-10.4,5.8-25.4-4.8-33c-0.6-0.5-1.1-0.9-1.2-1.8c-0.1-0.9,0.2-1.6,1-2.1c0.8-0.5,1.6-0.4,2.3,0.1
	c2.1,1.4,4,3.1,5.6,5C46.9,12.4,49,18.3,49,26z"/>
<path class="st0" d="M37.2,25.5c-0.1-6.2-2.1-10.5-6.2-14c-0.8-0.7-1.2-1.5-1.2-2.5c0-0.9,0.4-1.4,1.3-1.7c1-0.3,1.9-0.1,2.7,0.6
	c5.7,4.9,8.4,11.1,7.7,18.5c-0.5,6.1-3.3,11.1-8.1,14.9c-0.4,0.3-0.8,0.5-1.2,0.6c-1,0.2-2-0.3-2.3-1.1c-0.4-1-0.1-2.2,0.7-2.9
	c2.8-2.2,4.8-4.9,5.8-8.3C36.8,28,37,26.3,37.2,25.5z"/>
<path class="st0" d="M33.7,25.1c-0.1,3.6-1.4,6.8-4,9.4c-0.8,0.8-1.7,0.9-2.7,0.6c-0.7-0.2-1.1-0.7-1.1-1.4c0-1,0.2-1.8,0.9-2.6
	c3.4-3.4,3.4-9,0-12.5c-0.8-0.8-1-1.7-0.9-2.7c0.1-0.8,0.5-1.2,1.2-1.4c0.9-0.2,1.7,0,2.4,0.6C32.3,17.9,33.7,21.1,33.7,25.1z"/>
</svg>
