<?xml version="1.0" encoding="utf-8"?>
<!-- Generator: Adobe Illustrator 23.1.0, SVG Export Plug-In . SVG Version: 6.00 Build 0)  -->
<svg version="1.1" id="Слой_1" xmlns="http://www.w3.org/2000/svg" xmlns:xlink="http://www.w3.org/1999/xlink" x="0px" y="0px"
	 viewBox="0 0 100 100" style="enable-background:new 0 0 100 100;" xml:space="preserve">
<style type="text/css">
	.st0{fill:#FFFFFF;}
	.st1{fill:#1F1F1F;}
</style>
<rect class="st0" width="100" height="100"/>
<g>
	<g>
		<path d="M3.1,48c0.1-1,0.2-2,0.4-3c0.3-1.5,0.6-2.9,1.2-4.3c0.3-0.7,0.5-1.4,0.8-2.1c0.4-0.9,0.8-1.8,1.3-2.6c1-1.8,2.2-3.4,3.5-5
			c0.5-0.6,0.8-1.4,1.2-2.2c0.9-2,2.3-3.4,4.3-4.4c1.6-0.8,3.3-1.4,4.9-2.1c1.6-0.7,3.1-1.6,4.6-2.3c1.3-0.6,2.5-1.1,3.8-1.5
			c0.7-0.2,0.9-0.7,0.9-1.3c0.1-1.3,0.1-2.7,0-4c-0.3-2.3-0.2-4.5-0.2-6.8c0-1.4,0.3-2.7,1-3.9c0.4-0.7,1-1.2,1.8-1.4
			c0.4,0,0.9,0,1.3,0c1.8,0.5,3.2,1.6,4.6,2.8c1.9,1.6,3.5,3.5,5,5.4c0.8,1,1.7,2,2.2,3.2c0.4,0.8,1,1.4,1.6,1.9
			c0.6,0.4,1.2,0.4,1.8,0.3c2.1-0.2,4.2,0,6.3,0.3c2.5,0.4,4.9,1,7.4,1.3c1,0.1,2.1,0.2,3.1,0.2c0.9,0,1.7-0.4,2.4-0.9
			c1.7-1.1,3.3-2.4,4.9-3.6c2.6-2.1,5.2-4.3,8-6.2c1.2-0.8,2.4-1.6,3.7-2c1.4-0.4,2.4-0.1,3.3,1.1c0.6,0.8,1.1,1.6,1.3,2.6
			c0.2,1.1,0.4,2.2,0.5,3.3c0.2,1.3,0.2,2.5,0.1,3.8c-0.1,1.7-0.4,3.3-0.8,4.9c-0.2,0.9-0.5,1.7-0.8,2.6c-0.1,0.2-0.2,0.4-0.3,0.6
			c-0.3,0.6-0.2,1.3,0,1.9c0.2,0.9,0.5,1.8,1.1,2.4c0.6,0.6,1.2,1.2,1.7,1.8c1,1.1,1.9,2.3,2.7,3.6c0.9,1.3,1.6,2.7,2.3,4.1
			c0.4,0.9,0.8,1.9,1.2,2.9c0.5,1.3,0.8,2.6,1.2,4c0.2,0.6,0.2,1.2,0.3,1.7c0.4,2,0.4,4.1,0.3,6.1c0,1.5-0.3,3-0.6,4.5
			c-0.3,1.4-0.8,2.8-1.3,4.1c-0.8,1.9-1.8,3.6-2.9,5.3c-1.2,1.9-2.7,3.5-4.2,5.1c-2,2-4.2,3.7-6.5,5.3c-2.7,1.8-5.6,3.3-8.7,4.6
			c-3.9,1.6-7.9,2.7-12,3.5c-4.7,0.9-9.5,1.2-14.3,1c-5.6-0.2-11-1.1-16.4-2.8c-5.5-1.8-10.7-4.3-15.3-7.8c-2.1-1.6-4-3.3-5.8-5.2
			c-1.5-1.7-2.9-3.5-4-5.5c-0.8-1.3-1.4-2.7-2-4.1c-0.5-1.3-0.9-2.6-1.2-4c-0.3-1.2-0.4-2.4-0.6-3.6C3.1,50.5,3.1,49.2,3.1,48z
			 M50.8,83.3c2.3,0,4.5-0.1,6.6-0.3c3.7-0.4,7.4-1.1,11-2.2c5.3-1.6,10.2-3.9,14.8-7.1c1.5-1.1,2.9-2.2,4.2-3.4
			c2.4-2.3,4.5-4.8,6.1-7.7c0.7-1.3,1.3-2.6,1.9-3.9c0.6-1.6,1-3.2,1.3-4.9c0.2-1.2,0.2-2.3,0.3-3.5c0.1-0.6,0-1.2-0.1-1.8
			c-0.1-1.2-0.2-2.3-0.4-3.5c-0.2-0.8-0.3-1.7-0.6-2.5c-0.4-1.5-0.9-2.9-1.5-4.3c-0.7-1.5-1.4-3.1-2.3-4.5c-1.2-1.9-2.6-3.7-4.2-5.2
			c-1.4-1.4-1.8-3.2-2.2-5c0-0.1,0-0.2,0-0.2c0.5-1.2,1-2.4,1.3-3.7c0.5-1.7,0.8-3.4,0.9-5.2c0.1-2.1-0.2-4.1-0.6-6.2
			c-0.2-1-0.6-1.8-1.2-2.6c-0.3-0.4-0.6-0.5-1-0.3c-0.3,0.2-0.7,0.3-1,0.5c-2.1,1.2-4,2.7-5.9,4.2c-2.4,2-4.8,4-7.3,5.9
			c-1.3,0.9-2.6,1.7-4.1,2.1c-1.4,0.3-2.9,0.1-4.3-0.1c-2.5-0.3-4.9-0.9-7.3-1.3c-1.9-0.3-3.9-0.5-5.9-0.3c-1.3,0.1-2.5,0-3.6-0.8
			c-0.7-0.5-1.4-1-1.7-1.8c-0.7-1.5-1.7-2.7-2.7-4C39.8,7.8,38,6,36,4.3c-0.7-0.6-1.5-1.1-2.4-1.4c-0.3-0.1-0.5,0-0.7,0.2
			c-0.6,0.6-0.7,1.4-0.9,2.2c-0.2,0.7-0.2,1.5-0.2,2.2c0,2.4,0.1,4.7,0.3,7.1c0.1,1.1,0,2.3-0.2,3.4c-0.2,1-0.7,1.7-1.8,2.1
			c-1.4,0.4-2.7,1-4,1.6c-2.8,1.3-5.6,2.8-8.5,3.8c-2.2,0.8-3.8,2.3-4.7,4.5c-0.3,0.7-0.6,1.3-1.1,1.9c-1,1.3-2,2.6-2.8,4
			c-0.7,1.1-1.3,2.3-1.9,3.6c-0.5,1.1-0.8,2.2-1.2,3.4c-0.5,1.6-0.7,3.2-0.9,4.8c-0.2,1.7-0.1,3.5,0.1,5.2c0.2,1.7,0.6,3.4,1.1,5.1
			c0.6,1.7,1.3,3.4,2.2,4.9c1.2,2,2.6,3.9,4.2,5.7c2.5,2.7,5.3,4.9,8.4,6.8c4.3,2.6,8.8,4.6,13.6,5.9C40.2,82.6,45.6,83.3,50.8,83.3
			z"/>
		<path d="M24.2,52.1c0.2,0.2,0.3,0.4,0.5,0.6c0.6,0.7,0.4,1.2-0.5,1.4c-1.3,0.3-2.5,0.4-3.8,0.4c-1.2,0.1-2.3-0.2-3.3-0.7
			c-0.8-0.4-1.4-1-1.8-1.8c-0.3-0.7-0.1-1.3,0.7-1.4c0.1,0,0.2,0,0.4-0.1c-0.2-0.3-0.5-0.4-0.7-0.5c-0.4-0.3-0.9-0.7-1.3-1
			c-0.6-0.5-0.8-1.6-0.4-2.3c0.5-0.9,1.3-1.4,2.2-1.7c1.3-0.5,2.6-0.7,3.9-0.7c2.4-0.1,4.8,0,7,0.9c1,0.4,2,0.8,2.8,1.6
			c1.3,1.2,1.2,2.9,0,4.1C28.4,52.4,26.5,52.9,24.2,52.1z"/>
		<path d="M33.6,63.8c-2.6,0-5.1-0.1-7.7-0.4c-1.2-0.1-2.4-0.1-3.7-0.2c-2.1-0.2-4.2-0.6-6.2-1.4c-0.3-0.1-0.6-0.3-0.8-0.5
			c-0.8-0.7-0.8-1.6,0.1-2.2c0.7-0.6,1.6-0.8,2.5-0.9c1.9-0.3,3.7,0.1,5.4,0.9c0.9,0.4,1.8,0.6,2.8,0.8c2,0.5,4,0.9,5.9,1.8
			c1.2,0.6,2.4,0.4,3.7,0.2c2.6-0.4,5.3-0.8,7.9-1c0.9-0.1,1.9-0.2,2.8-0.2c0.4,0,0.5,0.1,0.3,0.5c-0.2,0.4-0.5,0.7-0.9,0.9
			c-1.1,0.7-2.4,1-3.7,1.2c-1.8,0.3-3.6,0.5-5.5,0.5C35.7,63.7,34.7,63.8,33.6,63.8z"/>
		<path d="M53.1,42.9c-1.7,0-3.2-0.3-4.7-1.1c-0.6-0.3-1.2-0.4-1.9-0.6c-1-0.2-1.3-0.7-0.9-1.7c0.9-2.6,4.6-5.4,7.6-5.3
			c1.7,0.1,3.2,0.6,4.6,1.5c1.1,0.7,2.1,1.5,3,2.4c0.2,0.2,0.2,0.3,0,0.5c-1.5,1.5-3.1,2.9-5.1,3.7c-0.5,0.2-0.9,0.3-1.4,0.4
			C54,42.9,53.5,42.9,53.1,42.9z M50.6,40c0-0.3,0-0.5,0-0.8c0.1-0.9,0.3-1.7,0.7-2.5c0.2-0.4,0.5-0.5,0.9-0.3
			c0.4,0.2,0.7,0.4,1,0.6c0.4,0.2,0.7,0.1,0.8-0.2c0.1-0.3,0-0.6-0.5-0.7c-0.9-0.2-1.8-0.2-2.7-0.1c-0.3,0-0.6,0.1-0.9,0.3
			c-1.1,0.7-1.7,1.8-1.8,3.1c0,0.6-0.1,1.2,0.4,1.5c0.6,0.4,1.3,0.7,2,1.1c0.2,0.1,0.3,0,0.2-0.2C50.5,41.2,50.6,40.6,50.6,40z"/>
		<path d="M24.3,37.8c-1.5-0.2-2.9-0.8-3.8-2c-0.6-0.8-0.4-1.6-0.1-2.4c0.5-1,1.2-1.9,2.2-2.4c1.3-0.7,2.5-0.4,3.8,0
			c0.9,0.3,1.7,0.8,2.1,1.8c0.1,0.3,0.2,0.6,0.1,0.9c-0.6,1.5-1.5,2.7-2.8,3.6C25.4,37.6,24.9,37.8,24.3,37.8z M23.8,36.8
			c-0.6-0.7-1.1-1.5-1.2-2.4c-0.1-0.6-0.1-1.2,0-1.8c0-0.1,0.1-0.3-0.1-0.3c-0.1-0.1-0.2,0.1-0.3,0.2c-0.9,0.8-1,2.1-0.3,3
			C22.3,36.1,23,36.6,23.8,36.8z M27.2,33.2c0.2-0.1,0.5-0.1,0.5-0.4c0-0.3-0.2-0.4-0.5-0.4c-0.3,0-0.5,0.1-0.5,0.4
			C26.7,33.1,26.9,33.2,27.2,33.2z"/>
	</g>
</g>
<polygon class="st1" points="45.7,7.7 100,0 0,0 0,14.3 40,8.6 40,41.4 0,41.4 0,47.1 40,47.1 40,91.4 0,85.7 0,100 100,100 
	45.7,92.3 45.7,47.1 100,47.1 100,41.4 45.7,41.4 "/>
</svg>
