<?xml version="1.0" encoding="utf-8"?>
<!-- Generator: Adobe Illustrator 23.1.0, SVG Export Plug-In . SVG Version: 6.00 Build 0)  -->
<svg version="1.1" id="Слой_1" xmlns="http://www.w3.org/2000/svg" xmlns:xlink="http://www.w3.org/1999/xlink" x="0px" y="0px"
	 viewBox="0 0 100 100" style="enable-background:new 0 0 100 100;" xml:space="preserve">
<style type="text/css">
	.st0{fill:#FFFFFF;}
</style>
<g>
	<path class="st0" d="M22.7,7.9c4.3-1.8,8.1-3.7,12.4-5.5c0.2-0.2,0.6,0,1,0.4c2.4,2.6,4.9,5.3,7.3,7.9c0.6,0.6,1,0.6,1.8,0.6
		c2-0.2,4.3-0.2,6.3-0.2c0.6,0,0.8,0,1.2-0.6C55,7.7,57.3,4.9,59.7,2c0.4-0.4,0.6-0.6,1.2-0.4C65,3,68.6,4.5,72.7,6.1
		c0.8,0.2,0.8,0.6,0.8,1.4c-0.2,3.7-0.4,7.3-0.4,11c0,0.4,0.2,0.8,0.4,1c1.8,1.8,3.2,3.2,5.1,4.7c0.4,0.4,0.8,0.2,1.2,0.4
		c3.9-0.2,7.5-0.6,11.2-1.2c0.6,0,1,0.2,1.2,0.6c1.6,3.7,3.2,7.5,5.1,11.2c0.2,0.6,0.2,1-0.4,1.4c-2.6,2.4-5.3,4.9-7.9,7.3
		c-0.4,0.4-0.6,0.8-0.6,1.4c0.2,2,0.2,4.3,0.2,6.3c0,0.8,0.2,1.2,0.8,1.6c3,2.2,5.9,4.7,8.9,7.1c0.2,0,0.4,0.6,0.4,0.8
		c-1.6,4.3-3.2,8.3-4.9,12.8c-2.6,0-5.1-0.2-7.5-0.2c-1.4-0.2-3-0.2-4.3-0.2c-0.4,0-1,0.2-1.2,0.6c-1.4,1.6-3.2,3.2-4.7,4.9
		c-0.4,0.4-0.4,0.6-0.4,1.2c0.4,3.7,0.8,7.3,1.2,10.8c0,0.4,0.2,0.8,0.2,1.2c-3.9,1.2-7.5,2.6-11.2,4.3c-2,1-2,1-3.7-0.8
		c-2.2-2.2-4.5-4.7-6.7-7.1c-0.4,0.2-0.8,0-1.2,0c-2.2,0-4.5,0-6.5,0.2c-0.6,0-1.2,0.2-1.6,0.6c-2.4,3-4.9,5.9-7.3,8.7
		c0,0.2-0.6,0.4-0.8,0.4c-4.3-1.6-8.3-3.2-12.8-4.9c0.2-3,0.2-5.7,0.4-8.7C26,83.5,26.4,82,26,81s-1.8-1.6-2.6-2.4
		c-1-0.8-1.8-1.8-2.6-2.6c-0.4-0.4-0.6-0.4-1.4-0.4C15.6,76,12,76.4,8.5,76.8c-0.4,0-0.6,0-1,0C5.7,72.5,3.9,68.6,2,64.4
		c-0.2-0.2,0-0.6,0.4-1c2.6-2.4,5.3-4.9,7.9-7.3c0.6-0.6,0.8-1,0.8-1.8c-0.4-1.8-0.2-4.1-0.4-5.9c0-0.6-0.2-1.2-0.8-1.4
		c-3-2.4-5.9-4.9-8.7-7.3c-0.2,0-0.4-0.6-0.2-1c1.6-4.3,3.2-8.3,4.7-12.6c3.5,0.2,6.7,0.2,9.7,0.4c2,0.2,3.5-0.2,4.7-2
		c1-1.4,2.2-2.4,3.2-3.5c0.4-0.4,0.4-0.6,0.4-1.4c-0.4-3.7-0.8-7.3-1.2-10.8C22.7,8.5,23,8.1,22.7,7.9z M8.1,65
		c0.2,0.2,0.2,0.2,0.2,0.6c0.6,1.6,1.6,3.2,2.2,4.9c0.2,0.6,0.4,0.4,1,0.4c3.5-0.2,6.7-0.6,10-1c0.6,0,1,0.2,1.4,0.4
		c2.2,3,4.9,5.3,7.9,7.3c0.4,0.4,0.6,0.6,0.6,1.2c-0.2,3.5-0.4,6.7-0.6,10.2c0.2,0.8,0.2,1,0.8,1.2c1.4,0.6,3,1.2,4.5,1.6
		c1,0.4,1.2,0,1.8-0.6c2-2.6,4.1-5.1,6.3-7.9c0-0.2,0.6-0.4,1-0.2c3.5,0.4,7.1,0.2,10.8-0.2c0.8-0.2,1.2,0,1.8,0.8
		c2.2,2.2,4.5,4.7,6.5,7.3c0.4,0.4,0.6,0.4,1.2,0.2c1.6-0.6,3-1.4,4.7-2c0.6-0.2,0.6-0.6,0.6-1c-0.2-3.5-0.6-6.7-1-10
		c0-0.6,0-0.8,0.4-1.4c2.8-2.2,5.3-4.7,7.3-7.9c0.4-0.6,1-0.8,1.6-0.6c3.5,0.2,6.7,0.4,10,0.6c0.6,0,0.8,0,1.2-0.6
		c0.6-1.4,1.2-3,1.6-4.5c0.2-0.8,0.2-1.2-0.4-1.6c-2.6-2-5.1-4.1-7.9-6.3c-0.2,0-0.4-0.6-0.4-1c0.6-3.7,0.2-7.5-0.4-11
		c0-0.4,0-0.8,0.4-1.4c2.6-2.2,5.1-4.7,7.3-6.7c0.4-0.4,0.4-0.6,0.2-1.2c-0.6-1.6-1.4-3-2-4.7c-0.2-0.6-0.6-0.6-1-0.6
		c-3.2,0.4-6.5,0.6-9.7,1c-0.8,0.2-1-0.2-1.4-0.6c-2.2-2.8-4.7-5.3-7.7-7.3c-0.4-0.4-0.8-0.8-0.8-1.4c0.2-3.5,0.4-6.7,0.6-10
		c0-0.6,0-0.8-0.6-1.2c-1.4-0.6-3-1.2-4.5-1.6c-0.8-0.2-1.2-0.2-1.6,0.4c-2,2.6-4.1,5.1-6.3,7.9c0,0.2-0.6,0.4-0.8,0.4
		c-3.7-0.6-7.5-0.2-11.2,0.4c-0.4,0-0.8,0-1.2-0.4c-2.4-2.4-4.7-5.1-6.7-7.3c-0.4-0.4-0.6-0.4-1.2-0.2c-1.6,0.6-3,1.4-4.5,2
		c-0.6,0.2-0.8,0.6-0.6,1c0.4,3.2,0.6,6.3,0.8,9.7c0,0.8,0,1.2-0.8,1.8c-2.8,2.2-5.3,4.7-7.3,7.7c-0.4,0.4-0.6,0.6-1.2,0.6
		c-3.5-0.2-6.7-0.4-10.2-0.6c-0.6,0-1,0.2-1.2,0.8c-0.6,1.4-1.2,3-1.6,4.5c-0.2,0.6-0.2,0.8,0.6,1.2c2.6,2,5.3,4.3,8.1,6.3
		c0.2,0,0.4,0.6,0.2,1c-0.6,3.7-0.2,7.5,0.4,11c0,0.4,0,0.8-0.4,1.4c-2.8,2.2-5.1,4.5-7.5,6.7C8.5,64.6,8.5,64.8,8.1,65z"/>
	<path class="st0" d="M41.2,71.9C29,67.2,23,54,27.6,41.8s17.9-18.3,30.1-13.6S76,46.1,71.3,58.3C66.6,70.5,53.4,76.6,41.2,71.9z
		 M56.1,32.9c-9.5-3.7-19.7,1.2-23.4,10.8S33.9,63.4,43.3,67c9.5,3.7,19.9-1,23.6-10.6C70.3,46.9,65.6,36.6,56.1,32.9z"/>
</g>
</svg>
