<?xml version="1.0" encoding="utf-8"?>
<!-- Generator: Adobe Illustrator 23.1.0, SVG Export Plug-In . SVG Version: 6.00 Build 0)  -->
<svg version="1.1" id="Слой_1" xmlns="http://www.w3.org/2000/svg" xmlns:xlink="http://www.w3.org/1999/xlink" x="0px" y="0px"
	 viewBox="0 0 50 50" style="enable-background:new 0 0 50 50;" xml:space="preserve">
<style type="text/css">
	.st0{fill:#FFFFFF;}
</style>
<g>
	<path class="st0" d="M11.4,4.3c2.1-0.9,4-1.8,6.1-2.7c0.1-0.1,0.3,0,0.5,0.2c1.2,1.3,2.4,2.6,3.6,3.9C21.9,6,22.1,6,22.5,6
		c1-0.1,2.1-0.1,3.1-0.1c0.3,0,0.4,0,0.6-0.3c1.1-1.4,2.2-2.8,3.4-4.2c0.2-0.2,0.3-0.3,0.6-0.2C32.2,1.9,34,2.6,36,3.4
		c0.4,0.1,0.4,0.3,0.4,0.7c-0.1,1.8-0.2,3.6-0.2,5.4c0,0.2,0.1,0.4,0.2,0.5c0.9,0.9,1.6,1.6,2.5,2.3c0.2,0.2,0.4,0.1,0.6,0.2
		c1.9-0.1,3.7-0.3,5.5-0.6c0.3,0,0.5,0.1,0.6,0.3c0.8,1.8,1.6,3.7,2.5,5.5c0.1,0.3,0.1,0.5-0.2,0.7c-1.3,1.2-2.6,2.4-3.9,3.6
		c-0.2,0.2-0.3,0.4-0.3,0.7c0.1,1,0.1,2.1,0.1,3.1c0,0.4,0.1,0.6,0.4,0.8c1.5,1.1,2.9,2.3,4.4,3.5c0.1,0,0.2,0.3,0.2,0.4
		c-0.8,2.1-1.6,4.1-2.4,6.3c-1.3,0-2.5-0.1-3.7-0.1c-0.7-0.1-1.5-0.1-2.1-0.1c-0.2,0-0.5,0.1-0.6,0.3c-0.7,0.8-1.6,1.6-2.3,2.4
		c-0.2,0.2-0.2,0.3-0.2,0.6c0.2,1.8,0.4,3.6,0.6,5.3c0,0.2,0.1,0.4,0.1,0.6c-1.9,0.6-3.7,1.3-5.5,2.1c-1,0.5-1,0.5-1.8-0.4
		c-1.1-1.1-2.2-2.3-3.3-3.5C27.4,44.1,27.2,44,27,44c-1.1,0-2.2,0-3.2,0.1c-0.3,0-0.6,0.1-0.8,0.3c-1.2,1.5-2.4,2.9-3.6,4.3
		c0,0.1-0.3,0.2-0.4,0.2c-2.1-0.8-4.1-1.6-6.3-2.4c0.1-1.5,0.1-2.8,0.2-4.3c0.1-0.7,0.3-1.4,0.1-1.9c-0.2-0.5-0.9-0.8-1.3-1.2
		c-0.5-0.4-0.9-0.9-1.3-1.3c-0.2-0.2-0.3-0.2-0.7-0.2c-1.8,0.2-3.6,0.4-5.3,0.6c-0.2,0-0.3,0-0.5,0c-0.9-2.1-1.8-4-2.7-6.1
		c-0.1-0.1,0-0.3,0.2-0.5C2.7,30.4,4,29.2,5.3,28c0.3-0.3,0.4-0.5,0.4-0.9c-0.2-0.9-0.1-2-0.2-2.9c0-0.3-0.1-0.6-0.4-0.7
		c-1.5-1.2-2.9-2.4-4.3-3.6c-0.1,0-0.2-0.3-0.1-0.5c0.8-2.1,1.6-4.1,2.3-6.2c1.7,0.1,3.3,0.1,4.8,0.2c1,0.1,1.7-0.1,2.3-1
		c0.5-0.7,1.1-1.2,1.6-1.7c0.2-0.2,0.2-0.3,0.2-0.7c-0.2-1.8-0.4-3.6-0.6-5.3C11.4,4.6,11.5,4.4,11.4,4.3z M4.2,32.4
		c0.1,0.1,0.1,0.1,0.1,0.3c0.3,0.8,0.8,1.6,1.1,2.4c0.1,0.3,0.2,0.2,0.5,0.2c1.7-0.1,3.3-0.3,4.9-0.5c0.3,0,0.5,0.1,0.7,0.2
		c1.1,1.5,2.4,2.6,3.9,3.6c0.2,0.2,0.3,0.3,0.3,0.6c-0.1,1.7-0.2,3.3-0.3,5c0.1,0.4,0.1,0.5,0.4,0.6c0.7,0.3,1.5,0.6,2.2,0.8
		c0.5,0.2,0.6,0,0.9-0.3c1-1.3,2-2.5,3.1-3.9c0-0.1,0.3-0.2,0.5-0.1c1.7,0.2,3.5,0.1,5.3-0.1c0.4-0.1,0.6,0,0.9,0.4
		c1.1,1.1,2.2,2.3,3.2,3.6c0.2,0.2,0.3,0.2,0.6,0.1c0.8-0.3,1.5-0.7,2.3-1c0.3-0.1,0.3-0.3,0.3-0.5c-0.1-1.7-0.3-3.3-0.5-4.9
		c0-0.3,0-0.4,0.2-0.7c1.4-1.1,2.6-2.3,3.6-3.9c0.2-0.3,0.5-0.4,0.8-0.3c1.7,0.1,3.3,0.2,4.9,0.3c0.3,0,0.4,0,0.6-0.3
		c0.3-0.7,0.6-1.5,0.8-2.2c0.1-0.4,0.1-0.6-0.2-0.8c-1.3-1-2.5-2-3.9-3.1c-0.1,0-0.2-0.3-0.2-0.5c0.3-1.8,0.1-3.7-0.2-5.4
		c0-0.2,0-0.4,0.2-0.7c1.3-1.1,2.5-2.3,3.6-3.3c0.2-0.2,0.2-0.3,0.1-0.6c-0.3-0.8-0.7-1.5-1-2.3c-0.1-0.3-0.3-0.3-0.5-0.3
		c-1.6,0.2-3.2,0.3-4.8,0.5c-0.4,0.1-0.5-0.1-0.7-0.3c-1.1-1.4-2.3-2.6-3.8-3.6c-0.2-0.2-0.4-0.4-0.4-0.7c0.1-1.7,0.2-3.3,0.3-4.9
		c0-0.3,0-0.4-0.3-0.6c-0.7-0.3-1.5-0.6-2.2-0.8c-0.4-0.1-0.6-0.1-0.8,0.2c-1,1.3-2,2.5-3.1,3.9c0,0.1-0.3,0.2-0.4,0.2
		c-1.8-0.3-3.7-0.1-5.5,0.2c-0.2,0-0.4,0-0.6-0.2c-1.2-1.2-2.3-2.5-3.3-3.6c-0.2-0.2-0.3-0.2-0.6-0.1c-0.8,0.3-1.5,0.7-2.2,1
		c-0.3,0.1-0.4,0.3-0.3,0.5c0.2,1.6,0.3,3.1,0.4,4.8c0,0.4,0,0.6-0.4,0.9c-1.4,1.1-2.6,2.3-3.6,3.8c-0.2,0.2-0.3,0.3-0.6,0.3
		c-1.7-0.1-3.3-0.2-5-0.3c-0.3,0-0.5,0.1-0.6,0.4c-0.3,0.7-0.6,1.5-0.8,2.2C4,18.9,4,19,4.4,19.2c1.3,1,2.6,2.1,4,3.1
		c0.1,0,0.2,0.3,0.1,0.5c-0.3,1.8-0.1,3.7,0.2,5.4c0,0.2,0,0.4-0.2,0.7C7.1,30,6,31.1,4.8,32.2C4.4,32.2,4.4,32.3,4.2,32.4z"/>
	<path class="st0" d="M20.5,35.8c-6-2.3-9-8.8-6.7-14.8s8.8-9,14.8-6.7s9,8.8,6.7,14.8S26.5,38.1,20.5,35.8z M27.8,16.6
		c-4.7-1.8-9.7,0.6-11.5,5.3s0.6,9.7,5.2,11.5c4.7,1.8,9.8-0.5,11.6-5.2C34.8,23.5,32.5,18.4,27.8,16.6z"/>
</g>
</svg>
