<?xml version="1.0" encoding="utf-8"?>
<!-- Generator: Adobe Illustrator 23.1.0, SVG Export Plug-In . SVG Version: 6.00 Build 0)  -->
<svg version="1.1" id="Слой_1" xmlns="http://www.w3.org/2000/svg" xmlns:xlink="http://www.w3.org/1999/xlink" x="0px" y="0px"
	 viewBox="0 0 50 50" style="enable-background:new 0 0 50 50;" xml:space="preserve">
<style type="text/css">
	.st0{fill:#FFFFFF;stroke:#FFFFFF;stroke-miterlimit:10;}
	.st1{fill:#FFFFFF;}
</style>
<path class="st0" d="M44.6,28.3C44.3,22.1,41.8,17,37,13.1c-1.7-1.4-3.6-2.4-5.7-3.1c-0.6-0.2-0.9-0.7-0.7-1.2
	C30.8,8.2,31.4,8,32,8.2c4.7,1.7,8.5,4.7,11.2,8.9c1.6,2.5,2.6,5.2,3,8.1c0.6,4,0.1,7.9-1.4,11.6c-1.5,3.6-3.9,6.6-7.1,9
	c-2.9,2.1-6.1,3.5-9.7,4c-3.7,0.5-7.3,0.1-10.8-1.3c-5.2-2.1-9-5.6-11.5-10.5C4,34.6,3.3,30.9,3.6,27.1c0.4-5.9,2.9-10.8,7.3-14.7
	c2.1-1.9,4.5-3.2,7.1-4.2c0.5-0.2,1.1,0,1.2,0.5c0.2,0.5,0,1-0.6,1.2c-1.4,0.5-2.7,1.1-3.9,1.8c-4.4,2.8-7.5,6.6-8.8,11.7
	C4.3,30.7,6,37,11.1,42.3c2.6,2.7,5.7,4.4,9.3,5.2c4.9,1.1,9.5,0.5,13.9-1.9c5-2.8,8.2-7,9.7-12.6C44.4,31.6,44.6,29.9,44.6,28.3z"
	/>
<rect x="23.2" class="st1" width="3.6" height="25"/>
</svg>
