<?xml version="1.0" encoding="utf-8"?>
<!-- Generator: Adobe Illustrator 23.1.0, SVG Export Plug-In . SVG Version: 6.00 Build 0)  -->
<svg version="1.1" id="Слой_1" xmlns="http://www.w3.org/2000/svg" xmlns:xlink="http://www.w3.org/1999/xlink" x="0px" y="0px"
	 viewBox="0 0 50 50" style="enable-background:new 0 0 50 50;" xml:space="preserve">
<style type="text/css">
	.st0{fill:#FFFFFF;stroke:#FFFFFF;stroke-width:0.5;stroke-miterlimit:10;}
</style>
<path class="st0" d="M47.5,20.7c1.4,10.7-4.4,21-14.1,24.9C22.2,50.2,9.6,45.3,4.2,34.5c-0.5-0.9-0.8-2-1.2-2.9
	c-0.2-0.4-0.2-0.9,0.3-1.1c0.3-0.1,0.8,0.1,1,0.3c2.7,2.6,5.8,4.3,9.5,5c10,1.9,19.7-4.9,21-15.1c1-7.6-1.7-13.6-8.1-17.9
	c-0.4-0.3-0.8-0.5-0.6-1c0.2-0.5,0.6-0.5,1.1-0.4c8.9,1.2,15,6,18.6,14.2C46.6,17.2,46.9,19,47.5,20.7z M5.6,33.8
	c1.5,3.2,3.7,5.8,6.5,7.9c4.3,3.2,9.2,4.5,14.4,4.1c11-0.9,19.6-10.1,19.6-21.6c0-11.2-8.2-19.2-16.3-21c3.8,3.6,6,7.9,6.4,13.1
	s-1,9.9-4.2,13.9c-2.8,3.5-6.5,5.8-10.9,6.7C15.6,38.2,10.4,37.1,5.6,33.8z"/>
</svg>
