<?xml version="1.0" encoding="utf-8"?>
<!-- Generator: Adobe Illustrator 23.1.0, SVG Export Plug-In . SVG Version: 6.00 Build 0)  -->
<svg version="1.1" id="Слой_1" xmlns="http://www.w3.org/2000/svg" xmlns:xlink="http://www.w3.org/1999/xlink" x="0px" y="0px"
	 viewBox="0 0 100 100" style="enable-background:new 0 0 100 100;" xml:space="preserve">
<style type="text/css">
	.st0{fill:#FFFFFF;stroke:#FFFFFF;stroke-miterlimit:10;}
</style>
<path class="st0" d="M52.3,10.8c-12.4-0.6-23,3.4-31.7,12.2c-3.1,3.1-5.5,6.7-7.3,10.7c-0.5,1.2-1.6,1.7-2.5,1.2
	c-1.2-0.5-1.4-1.7-0.9-2.9c4.3-9,11-16,19.9-20.6C35,8.7,40.6,7.3,46.4,7c8.1-0.4,15.7,1.3,22.8,5c6.9,3.7,12.4,9,16.5,15.9
	c3.6,6.2,5.8,12.8,6.1,20.1c0.3,7.5-1.2,14.6-4.7,21.2C82,79.2,74.3,86.1,64.1,90.1C57,92.9,49.5,93.5,42,92.2
	C30.3,90.3,21,84.3,14.1,74.8c-3.4-4.5-5.5-9.6-7-14.9c-0.3-1,0.2-2.2,1.2-2.3c1-0.3,2,0.2,2.3,1.4c0.7,2.9,1.7,5.6,2.8,8.1
	c4.7,9.3,11.7,16.2,21.6,19.8c14.2,4.6,27.1,2.4,38.6-6.7c5.9-4.7,9.9-10.5,12.1-17.5c3.1-9.5,2.8-18.8-1.1-28
	C80.1,24.2,72.4,17,61.5,12.9C58.8,11.9,55.4,11.1,52.3,10.8z"/>
<path class="st0" d="M11.2,36.1L11.2,36.1c-1.3,0.1-2.4-0.9-2.5-2.1L7.8,19.3C7.7,18.1,8.7,17,10,16.9l0.1,0
	c1.3-0.1,2.4,0.9,2.4,2.1l0.9,14.6C13.5,34.9,12.5,36,11.2,36.1z"/>
<path class="st0" d="M9.3,34.7L9.3,34.7c-0.6-1.2-0.1-2.6,1.1-3.1l14-6.6c1.1-0.5,2.5,0,3,1.1l0,0.1c0.5,1.1,0,2.5-1.1,3l-14,6.6
	C11.2,36.3,9.8,35.8,9.3,34.7z"/>
</svg>
