<?xml version="1.0" encoding="utf-8"?>
<!-- Generator: Adobe Illustrator 23.1.0, SVG Export Plug-In . SVG Version: 6.00 Build 0)  -->
<svg version="1.1" id="Слой_1" xmlns="http://www.w3.org/2000/svg" xmlns:xlink="http://www.w3.org/1999/xlink" x="0px" y="0px"
	 viewBox="0 0 50 50" style="enable-background:new 0 0 50 50;" xml:space="preserve">
<style type="text/css">
	.st0{fill:#FFFFFF;}
</style>
<path class="st0" d="M45.9,50c-13.8,0-27.5,0-41.3,0c0-16.5,0-33,0-49.5c0.2,0,0.4,0,0.6,0c9.2,0,18.5,0,27.7,0c0.4,0,0.7,0.1,1,0.4
	c3.8,3.8,7.7,7.7,11.5,11.5c0.3,0.3,0.5,0.7,0.5,1.1c0,11.9,0,23.9,0,35.8C45.9,49.5,45.9,49.7,45.9,50z M43.7,47.9
	c0-11,0-22,0-33.1c-4.1,0-8.2,0-12.4,0c0-4.1,0-8.2,0-12.3c-8.3,0-16.5,0-24.7,0c0,15.1,0,30.2,0,45.4C19,47.9,31.4,47.9,43.7,47.9z
	 M33.5,3.7c0,0,0,0.1,0,0.2c0,2.8,0,5.7,0,8.5c0,0.4,0.2,0.5,0.5,0.5c2.8,0,5.5,0,8.3,0c0.2,0,0.3,0,0.4,0
	C39.6,9.8,36.5,6.7,33.5,3.7z"/>
</svg>
