<?xml version="1.0" encoding="utf-8"?>
<!-- Generator: Adobe Illustrator 23.1.0, SVG Export Plug-In . SVG Version: 6.00 Build 0)  -->
<svg version="1.1" id="Слой_1" xmlns="http://www.w3.org/2000/svg" xmlns:xlink="http://www.w3.org/1999/xlink" x="0px" y="0px"
	 viewBox="0 0 100 100" style="enable-background:new 0 0 100 100;" xml:space="preserve">
<style type="text/css">
	.st0{fill:#FFFFFF;}
</style>
<path class="st0" d="M91.7,100c-27.9,0-55.6,0-83.4,0c0-33.3,0-66.7,0-100c0.4,0,0.8,0,1.2,0c18.6,0,37.4,0,56,0
	c0.8,0,1.4,0.2,2,0.8C75.2,8.5,83,16.4,90.7,24c0.6,0.6,1,1.4,1,2.2c0,24,0,48.3,0,72.3C91.7,99,91.7,99.4,91.7,100z M87.3,95.8
	c0-22.2,0-44.4,0-66.9c-8.3,0-16.6,0-25.1,0c0-8.3,0-16.6,0-24.8C45.5,4,28.9,4,12.3,4c0,30.5,0,61,0,91.7
	C37.4,95.8,62.4,95.8,87.3,95.8z M66.7,6.5c0,0,0,0.2,0,0.4c0,5.7,0,11.5,0,17.2c0,0.8,0.4,1,1,1c5.7,0,11.1,0,16.8,0
	c0.4,0,0.6,0,0.8,0C79,18.8,72.7,12.5,66.7,6.5z"/>
</svg>
