<?xml version="1.0" encoding="utf-8"?>
<!-- Generator: Adobe Illustrator 23.1.0, SVG Export Plug-In . SVG Version: 6.00 Build 0)  -->
<svg version="1.1" id="Слой_1" xmlns="http://www.w3.org/2000/svg" xmlns:xlink="http://www.w3.org/1999/xlink" x="0px" y="0px"
	 viewBox="0 0 50 50" style="enable-background:new 0 0 50 50;" xml:space="preserve">
<style type="text/css">
	.st0{fill:#FFFFFF;}
</style>
<path class="st0" d="M25,45.6c-6.8,0-13.6,0-20.4,0c-0.4,0-0.9,0-1.3-0.1c-0.5-0.1-0.9-0.3-1.4-0.5c-0.6-0.3-1.1-0.9-1.4-1.5
	c-0.1-0.2-0.2-0.5-0.3-0.8C-0.1,42.1,0,41.3,0,40.6c0-7.7,0-15.3,0-23c0-0.1,0-0.3,0-0.4C0.1,16,0.6,15,1.6,14.3
	c0.8-0.6,1.8-0.8,2.8-0.8c0.7,0,0.7,0,0.7-0.7c0-1,0-2,0-3c0-0.4,0.1-0.4,0.4-0.4c1.3,0,2.7,0,4,0c0.5,0,0.5,0,0.5,0.5
	c0,1.1,0,2.1,0,3.2c0,0.4,0,0.4,0.4,0.4c0.1,0,0.2,0,0.3,0c0.4,0,0.5-0.1,0.6-0.4c0.1-0.3,0.3-0.6,0.4-1c0.1-0.3,0.2-0.5,0.3-0.8
	c0.2-0.4,0.3-0.9,0.5-1.3c0.2-0.5,0.4-1,0.6-1.4c0.2-0.5,0.4-0.9,0.6-1.4c0.1-0.3,0.2-0.5,0.3-0.8c0.1-0.3,0.2-0.6,0.4-0.9
	c0.1-0.2,0.2-0.2,0.4-0.2c6.8,0,13.6,0,20.5,0c0.3,0,0.4,0.1,0.5,0.4c0.2,0.5,0.4,1.1,0.7,1.6c0.3,0.6,0.5,1.3,0.7,1.9
	c0.2,0.5,0.4,0.9,0.6,1.3c0.1,0.2,0.2,0.4,0.3,0.6c0.2,0.5,0.5,1.1,0.6,1.6c0.1,0.6,0.5,0.7,1.1,0.7c2,0,4,0,6,0
	c0.5,0,1.1,0.1,1.6,0.2c0.8,0.2,1.4,0.7,1.9,1.3c0.6,0.8,0.9,1.7,0.8,2.7c0,7.9,0,15.8,0,23.8c0,0.5-0.1,1-0.3,1.5
	c-0.3,0.9-1,1.6-1.9,2.1c-0.7,0.4-1.5,0.5-2.3,0.5C38.7,45.6,31.8,45.6,25,45.6z M25,44c6.9,0,13.8,0,20.7,0c0.6,0,1.1-0.1,1.6-0.4
	c0.4-0.3,0.7-0.6,0.9-1.1c0.1-0.4,0.2-0.8,0.2-1.2c0-7.8,0-15.6,0-23.5c0-0.1,0-0.3,0-0.4c-0.1-0.5-0.2-0.9-0.5-1.3
	c-0.5-0.7-1.3-1-2.1-1c-2.5,0-5,0-7.5,0c-0.4,0-0.6-0.1-0.7-0.5c0-0.1,0-0.1-0.1-0.2c-0.3-0.7-0.6-1.4-0.9-2.2
	c-0.1-0.2-0.2-0.4-0.3-0.7c-0.2-0.4-0.4-0.9-0.6-1.3c-0.2-0.5-0.3-0.9-0.5-1.4c-0.2-0.5-0.4-1-0.6-1.5c-0.1-0.4-0.2-0.5-0.6-0.5
	c-6,0-12,0-18,0c-0.4,0-0.5,0.1-0.6,0.5c-0.1,0.3-0.2,0.5-0.3,0.8c-0.2,0.5-0.4,1-0.6,1.5c-0.1,0.2-0.2,0.5-0.3,0.7
	c-0.2,0.5-0.4,1-0.6,1.5c-0.2,0.4-0.4,0.9-0.5,1.3c-0.2,0.5-0.4,1-0.6,1.5c-0.1,0.3-0.3,0.5-0.7,0.5c-2.6,0-5.1,0-7.7,0
	c-0.5,0-1,0.1-1.5,0.5c-0.7,0.5-1,1.3-1,2.1c0,7.9,0,15.7,0,23.6c0,0.6,0.1,1.1,0.4,1.6c0.2,0.4,0.6,0.7,1,0.9C3.5,44,4,44,4.5,44
	C11.3,44,18.1,44,25,44z M6.7,12.2c0,0.3,0,0.6,0,1c0,0.2,0.1,0.3,0.3,0.3c0.4,0,0.7,0,1.1,0c0.2,0,0.3-0.1,0.3-0.3
	c0-0.6,0-1.2,0-1.8c0-0.2-0.1-0.3-0.3-0.3c-0.4,0-0.8,0-1.1,0c-0.2,0-0.2,0.1-0.2,0.2C6.7,11.6,6.7,11.9,6.7,12.2z"/>
<path class="st0" d="M9.3,14H5.7C5.3,14,5,13.7,5,13.3v-2.7C5,10.3,5.3,10,5.7,10h3.7c0.4,0,0.7,0.3,0.7,0.7v2.7
	C10,13.7,9.7,14,9.3,14z"/>
<path class="st0" d="M25,42.3c-8.2,0.1-14.6-6.4-15-14.1C9.7,19.6,16.5,12.7,25,12.7c8.2,0,14.7,6.4,15,14.4
	c0.2,4.1-1.3,7.8-4.2,10.8C32.8,40.8,29.2,42.3,25,42.3z M25,40.7c7.4,0,13.3-5.9,13.4-13.1c0-7.3-5.9-13.3-13.3-13.3
	c-7.3,0-13.3,5.9-13.4,13.1C11.6,34.7,17.6,40.7,25,40.7z"/>
<path class="st0" d="M35,27.5c0.1,5.4-4.3,9.7-9.6,9.9c-5.7,0.2-10.2-4.3-10.3-9.6c-0.1-5.7,4.4-10,9.6-10.2
	C30.3,17.4,35,21.9,35,27.5z M16.7,27.5C16.7,27.5,16.6,27.5,16.7,27.5c0,0.6,0.1,1.2,0.2,1.7c0.1,0.4,0.1,0.8,0.3,1.2
	c0.3,0.6,0.6,1.2,1,1.8c0.6,1,1.4,1.7,2.4,2.3c0.7,0.4,1.5,0.8,2.3,1c0.9,0.2,1.7,0.3,2.6,0.2c0.6-0.1,1.1-0.1,1.7-0.3
	c0.5-0.2,1-0.3,1.4-0.5c0.5-0.2,0.9-0.5,1.3-0.8c0.8-0.6,1.5-1.3,2-2.1c0.4-0.6,0.8-1.3,1-2c0.2-0.7,0.4-1.3,0.4-2
	c0-0.7,0.1-1.5-0.2-2.2C33,25.4,33,25,32.8,24.6c-0.2-0.5-0.5-1-0.8-1.5c-0.5-0.8-1.2-1.5-2-2.1c-0.4-0.3-0.7-0.5-1.1-0.7
	c-0.4-0.2-0.9-0.4-1.4-0.6c-0.5-0.1-0.9-0.2-1.4-0.3c-0.6-0.1-1.1-0.1-1.7-0.1c-0.6,0-1.2,0.2-1.8,0.3c-0.6,0.2-1.3,0.4-1.8,0.8
	c-0.8,0.4-1.4,1-2,1.6c-0.4,0.5-0.8,1.1-1.2,1.7c-0.2,0.4-0.4,0.8-0.5,1.3c-0.2,0.6-0.4,1.2-0.4,1.9C16.7,27.1,16.7,27.3,16.7,27.5z
	"/>
</svg>
