<?xml version="1.0" encoding="utf-8"?>
<!-- Generator: Adobe Illustrator 23.1.0, SVG Export Plug-In . SVG Version: 6.00 Build 0)  -->
<svg version="1.1" id="Слой_1" xmlns="http://www.w3.org/2000/svg" xmlns:xlink="http://www.w3.org/1999/xlink" x="0px" y="0px"
	 viewBox="0 0 100 100" style="enable-background:new 0 0 100 100;" xml:space="preserve">
<style type="text/css">
	.st0{fill:#FFFFFF;stroke:#FFFFFF;stroke-miterlimit:10;}
	.st1{fill:#FFFFFF;}
</style>
<path class="st0" d="M89.2,56.6C88.6,44.2,83.6,34,74,26.2c-3.4-2.8-7.2-4.8-11.4-6.2c-1.2-0.4-1.8-1.4-1.4-2.4
	c0.4-1.2,1.6-1.6,2.8-1.2c9.4,3.4,17,9.4,22.4,17.8c3.2,5,5.2,10.4,6,16.2c1.2,8,0.2,15.8-2.8,23.2c-3,7.2-7.8,13.2-14.2,18
	c-5.8,4.2-12.2,7-19.4,8c-7.4,1-14.6,0.2-21.6-2.6c-10.4-4.2-18-11.2-23-21C8,69.2,6.6,61.8,7.2,54.2C8,42.4,13,32.6,21.8,24.8
	c4.2-3.8,9-6.4,14.2-8.4c1-0.4,2.2,0,2.4,1c0.4,1,0,2-1.2,2.4c-2.8,1-5.4,2.2-7.8,3.6c-8.8,5.6-15,13.2-17.6,23.4
	C8.6,61.4,12,74,22.2,84.6C27.4,90,33.6,93.4,40.8,95c9.8,2.2,19,1,27.8-3.8C78.6,85.6,85,77.2,88,66C88.8,63.2,89.2,59.8,89.2,56.6
	z"/>
<rect x="46.4" y="0" class="st1" width="7.2" height="50"/>
</svg>
